<?xml version="1.0" encoding="iso-8859-1"?>
<!-- Generator: Adobe Illustrator 16.0.0, SVG Export Plug-In . SVG Version: 6.00 Build 0)  -->
<!DOCTYPE svg PUBLIC "-//W3C//DTD SVG 1.1//EN" "http://www.w3.org/Graphics/SVG/1.1/DTD/svg11.dtd">
<svg version="1.1" id="Capa_1" xmlns="http://www.w3.org/2000/svg" xmlns:xlink="http://www.w3.org/1999/xlink" x="0px" y="0px"
	 width="31.5px" height="31.5px" viewBox="0 0 31.5 31.5" style="enable-background:new 0 0 31.5 31.5;" xml:space="preserve">
<g>
	<g>
		<path d="M28.75,0h-26C1.232,0,0,1.233,0,2.75v26c0,1.518,1.232,2.75,2.75,2.75h22.895l5.855-5.855V2.75
			C31.5,1.234,30.268,0,28.75,0z M24.583,2.042c0.817,0,1.479,0.662,1.479,1.479S25.4,5,24.583,5s-1.479-0.662-1.479-1.479
			S23.766,2.042,24.583,2.042z M20.167,2.042c0.817,0,1.479,0.662,1.479,1.479S20.984,5,20.167,5s-1.479-0.662-1.479-1.479
			S19.35,2.042,20.167,2.042z M15.75,2.042c0.817,0,1.479,0.662,1.479,1.479S16.567,5,15.75,5s-1.479-0.662-1.479-1.479
			S14.933,2.042,15.75,2.042z M11.333,2.042c0.817,0,1.479,0.662,1.479,1.479S12.15,5,11.333,5S9.854,4.338,9.854,3.521
			S10.516,2.042,11.333,2.042z M6.917,2.042c0.817,0,1.479,0.662,1.479,1.479S7.734,5,6.917,5S5.438,4.338,5.438,3.521
			S6.1,2.042,6.917,2.042z M30,25.023l-0.311,0.311h-2.355c-1.102,0-2,0.9-2,2v2.355L25.023,30H2.75c-0.689,0-1.25-0.561-1.25-1.25
			v-22H30V25.023z"/>
		<path d="M12.898,24.542h3.889c0.126-4.285,1.891-7.995,4.177-9.849v-2.845H10.755v3.061h6.519
			C15.095,17.195,13.294,20.292,12.898,24.542z"/>
	</g>
</g>
<g>
</g>
<g>
</g>
<g>
</g>
<g>
</g>
<g>
</g>
<g>
</g>
<g>
</g>
<g>
</g>
<g>
</g>
<g>
</g>
<g>
</g>
<g>
</g>
<g>
</g>
<g>
</g>
<g>
</g>
</svg>
