<svg width="30" height="30" viewBox="0 0 30 30" fill="none" xmlns="http://www.w3.org/2000/svg">
<path d="M22.9593 0.136282C22.8485 0.205572 21.7953 1.23107 20.6312 2.40207C18.7049 4.3422 18.504 4.57085 18.4624 4.8203C18.4347 4.97274 18.2961 6.31004 18.1437 7.79285L17.8734 10.4952L14.5891 13.7864C12.7806 15.6019 11.2631 17.154 11.2216 17.2371C11.18 17.3202 11.1454 17.5558 11.1454 17.7568C11.1454 18.4289 11.568 18.8516 12.2401 18.8516C12.4411 18.8516 12.6767 18.8169 12.7598 18.7753C12.843 18.7338 14.3951 17.2163 16.2105 15.4078L19.5018 12.1235L22.2041 11.8533C23.6869 11.7008 25.0242 11.5622 25.1766 11.5345C25.4261 11.4929 25.6617 11.2851 27.6226 9.33109C28.8213 8.14623 29.8398 7.09302 29.8953 6.98908C30.0477 6.69113 30.02 6.09524 29.8329 5.82501C29.535 5.37462 29.4449 5.35383 27.1514 5.17368C26.0012 5.07667 25.045 4.9866 25.0242 4.97274C25.0103 4.95195 24.9202 3.99575 24.8232 2.84553C24.6431 0.552023 24.6223 0.461946 24.1719 0.163998C23.874 -0.0438723 23.2642 -0.0577304 22.9593 0.136282ZM22.7099 5.1321C22.8554 7.13459 22.89 7.16924 25.2806 7.31475C25.7171 7.34246 26.119 7.38404 26.1605 7.41175C26.216 7.43947 25.918 7.79285 25.3152 8.38874L24.3798 9.32416L22.3149 9.53203L20.257 9.7399L20.4649 7.68198L20.6728 5.61714L21.6082 4.68172C22.1971 4.08582 22.5575 3.78095 22.5852 3.83638C22.606 3.87795 22.6683 4.46692 22.7099 5.1321Z" fill="#E75556"/>
<path d="M10.8693 5.55572C7.88294 5.90217 4.97275 7.41962 3.03956 9.65077C-1.83847 15.2702 -0.709044 23.8206 5.45085 27.9365C9.04009 30.3408 13.6548 30.6665 17.5628 28.7957C21.3807 26.9664 23.9791 23.2802 24.4433 19.0465C24.5888 17.7577 24.5195 16.5105 24.2354 15.1247C24.0276 14.1338 23.7435 13.7597 23.1476 13.6765C22.7665 13.628 22.2814 13.8082 22.0874 14.0784C21.8033 14.4734 21.7964 14.6882 21.9974 15.6513C22.1637 16.4066 22.1914 16.6976 22.1914 17.7092C22.1914 18.5753 22.1637 19.0534 22.0666 19.5108C21.346 23.1346 18.8862 25.9894 15.4702 27.1743C14.3893 27.5484 13.5855 27.6801 12.2898 27.6801C10.5922 27.687 9.31032 27.396 7.87601 26.6823C5.01433 25.2549 3.0742 22.6981 2.44366 19.5108C2.27043 18.6516 2.27043 16.8362 2.44366 15.977C3.26821 11.8196 6.33084 8.75693 10.4883 7.93237C10.9386 7.84229 11.4306 7.80765 12.2898 7.80765C13.3084 7.80765 13.5855 7.83537 14.3477 7.99473C15.3109 8.2026 15.5256 8.19567 15.9206 7.91159C16.1908 7.71757 16.371 7.23254 16.3225 6.85145C16.2393 6.25555 15.8652 5.97146 14.8743 5.76359C13.5232 5.48643 12.1235 5.41021 10.8693 5.55572Z" fill="#E75556"/>
<path d="M10.868 11.1962C8.40131 11.7367 6.50275 13.5313 5.79599 15.9841C5.65741 16.4622 5.63663 16.684 5.63663 17.7441C5.63663 18.8043 5.65741 19.026 5.79599 19.5041C6.46811 21.8184 8.17958 23.5298 10.4939 24.202C10.972 24.3405 11.1937 24.3613 12.2538 24.3613C13.314 24.3613 13.5357 24.3405 14.0138 24.202C16.3142 23.5368 18.0465 21.8184 18.6978 19.5387C18.8018 19.1992 18.8572 18.7488 18.8849 18.1945C18.9126 17.4392 18.8988 17.3422 18.774 17.1344C18.3375 16.4484 17.2219 16.4553 16.8201 17.1551C16.7438 17.2799 16.6676 17.6333 16.6261 18.0213C16.4805 19.4487 15.8708 20.5365 14.7691 21.3264C12.2816 23.1002 8.75469 21.7768 7.98556 18.7765C7.90242 18.4509 7.88163 18.1321 7.90242 17.5362C7.93013 16.8503 7.96478 16.6632 8.15186 16.1851C8.67154 14.8755 9.84254 13.8292 11.1937 13.4828C11.4154 13.4273 11.9767 13.3719 12.4409 13.358C13.1685 13.3442 13.3071 13.3234 13.4803 13.1987C14.1663 12.6859 14.1663 11.7852 13.4803 11.2724C13.3071 11.1408 13.1754 11.1269 12.3023 11.113C11.6579 11.1061 11.166 11.1338 10.868 11.1962Z" fill="#E75556"/>
</svg>
