<svg width="32" height="30" viewBox="0 0 32 30" fill="none" xmlns="http://www.w3.org/2000/svg">
<path d="M5.70171 1.67368L5.70122 1.67394C5.58561 1.73587 5.48508 1.81772 5.41451 1.92755C5.34284 2.03909 5.31287 2.16275 5.31287 2.28951C5.31287 2.36744 5.34227 2.43538 5.36167 2.47504C5.3846 2.5219 5.41494 2.57075 5.44839 2.61926C5.51563 2.7168 5.60971 2.83344 5.72274 2.96305C5.94978 3.22338 6.26919 3.55407 6.64466 3.9205C7.39634 4.65409 8.38479 5.54269 9.33654 6.3184C12.5137 8.91221 16.3198 11.1295 20.2184 12.6473L5.70171 1.67368ZM5.70171 1.67368C5.7656 1.63964 5.83812 1.62047 5.90113 1.61139C5.96291 1.60248 6.04131 1.59954 6.11694 1.61782M5.70171 1.67368L25.3454 14.1439M25.3454 14.1439L25.3477 14.1441C25.4278 14.1509 25.4982 14.1566 25.5574 14.1579C25.6161 14.1592 25.6804 14.157 25.7443 14.1405C25.8941 14.1018 25.9749 14.0007 26.0314 13.9289C26.0782 13.8713 26.1194 13.8051 26.1499 13.7419C26.1763 13.687 26.2117 13.6002 26.2117 13.5109C26.2117 13.4008 26.16 13.305 26.1223 13.2465C26.079 13.1794 26.0232 13.1149 25.9655 13.0594C25.9077 13.0038 25.8412 12.9507 25.7727 12.9097C25.7142 12.8747 25.6237 12.8298 25.5219 12.8269C25.5195 12.8266 25.515 12.826 25.5081 12.8249C25.4915 12.8222 25.4681 12.818 25.4376 12.812C25.3768 12.8 25.2944 12.7825 25.1956 12.7604C24.9984 12.7164 24.741 12.6556 24.4717 12.5891C19.8602 11.4463 14.8095 8.90877 10.7035 5.68345C9.60622 4.81599 8.82651 4.12624 7.60118 2.92927C7.26062 2.5938 6.93503 2.28412 6.68435 2.05542C6.55925 1.9413 6.45101 1.84569 6.36807 1.77668C6.32694 1.74245 6.28927 1.71245 6.25742 1.68939C6.2417 1.67801 6.22422 1.666 6.20648 1.65545L6.20611 1.65523C6.19502 1.64864 6.16093 1.62836 6.11694 1.61782M25.3454 14.1439C24.9077 14.1023 24.0307 13.8849 23.0766 13.6054M25.3454 14.1439L23.0766 13.6054M6.11694 1.61782C6.11582 1.61755 6.1147 1.61729 6.11357 1.61704L6.05859 1.86092M6.11694 1.61782C6.11726 1.6179 6.11758 1.61798 6.1179 1.61805L6.05859 1.86092M6.05859 1.86092C6.13267 1.87761 6.74805 2.4398 7.42611 3.10774L6.05859 1.86092ZM23.0766 13.6054C22.1145 13.3236 21.0476 12.9707 20.2186 12.6474L23.0766 13.6054Z" fill="#5150A2"/>
<path d="M5.70171 1.67368L5.70122 1.67394C5.58561 1.73587 5.48508 1.81772 5.41451 1.92755C5.34284 2.03909 5.31287 2.16275 5.31287 2.28951C5.31287 2.36744 5.34227 2.43538 5.36167 2.47504C5.3846 2.5219 5.41494 2.57075 5.44839 2.61926C5.51563 2.7168 5.60971 2.83344 5.72274 2.96305C5.94978 3.22338 6.26919 3.55407 6.64466 3.9205C7.39634 4.65409 8.38479 5.54269 9.33654 6.3184C12.5137 8.91221 16.3198 11.1295 20.2184 12.6473L5.70171 1.67368ZM5.70171 1.67368C5.7656 1.63964 5.83812 1.62047 5.90113 1.61139C5.96291 1.60248 6.04131 1.59954 6.11694 1.61782M5.70171 1.67368L25.3454 14.1439M25.3454 14.1439L25.3477 14.1441C25.4278 14.1509 25.4982 14.1566 25.5574 14.1579C25.6161 14.1592 25.6804 14.157 25.7443 14.1405C25.8941 14.1018 25.9749 14.0007 26.0314 13.9289C26.0782 13.8713 26.1194 13.8051 26.1499 13.7419C26.1763 13.687 26.2117 13.6002 26.2117 13.5109C26.2117 13.4008 26.16 13.305 26.1223 13.2465C26.079 13.1794 26.0232 13.1149 25.9655 13.0594C25.9077 13.0038 25.8412 12.9507 25.7727 12.9097C25.7142 12.8747 25.6237 12.8298 25.5219 12.8269C25.5195 12.8266 25.515 12.826 25.5081 12.8249C25.4915 12.8222 25.4681 12.818 25.4376 12.812C25.3768 12.8 25.2944 12.7825 25.1956 12.7604C24.9984 12.7164 24.741 12.6556 24.4717 12.5891C19.8602 11.4463 14.8095 8.90877 10.7035 5.68345C9.60622 4.81599 8.82651 4.12624 7.60118 2.92927C7.26062 2.5938 6.93503 2.28412 6.68435 2.05542C6.55925 1.9413 6.45101 1.84569 6.36807 1.77668C6.32694 1.74245 6.28927 1.71245 6.25742 1.68939C6.2417 1.67801 6.22422 1.666 6.20648 1.65545L6.20611 1.65523C6.19502 1.64864 6.16093 1.62836 6.11694 1.61782M25.3454 14.1439C24.9077 14.1023 24.0307 13.8849 23.0766 13.6054M25.3454 14.1439L23.0766 13.6054M6.11694 1.61782C6.11582 1.61755 6.1147 1.61729 6.11357 1.61704L6.05859 1.86092M6.11694 1.61782C6.11726 1.6179 6.11758 1.61798 6.1179 1.61805L6.05859 1.86092M6.05859 1.86092C6.13267 1.87761 6.74805 2.4398 7.42611 3.10774L6.05859 1.86092ZM23.0766 13.6054C22.1145 13.3236 21.0476 12.9707 20.2186 12.6474L23.0766 13.6054Z" fill="#3E5DE6"/>
<path d="M5.70171 1.67368L5.70122 1.67394C5.58561 1.73587 5.48508 1.81772 5.41451 1.92755C5.34284 2.03909 5.31287 2.16275 5.31287 2.28951C5.31287 2.36744 5.34227 2.43538 5.36167 2.47504C5.3846 2.5219 5.41494 2.57075 5.44839 2.61926C5.51563 2.7168 5.60971 2.83344 5.72274 2.96305C5.94978 3.22338 6.26919 3.55407 6.64466 3.9205C7.39634 4.65409 8.38479 5.54269 9.33654 6.3184C12.5137 8.91221 16.3198 11.1295 20.2184 12.6473L5.70171 1.67368ZM5.70171 1.67368C5.7656 1.63964 5.83812 1.62047 5.90113 1.61139C5.96291 1.60248 6.04131 1.59954 6.11694 1.61782M5.70171 1.67368L25.3454 14.1439M25.3454 14.1439L25.3477 14.1441C25.4278 14.1509 25.4982 14.1566 25.5574 14.1579C25.6161 14.1592 25.6804 14.157 25.7443 14.1405C25.8941 14.1018 25.9749 14.0007 26.0314 13.9289C26.0782 13.8713 26.1194 13.8051 26.1499 13.7419C26.1763 13.687 26.2117 13.6002 26.2117 13.5109C26.2117 13.4008 26.16 13.305 26.1223 13.2465C26.079 13.1794 26.0232 13.1149 25.9655 13.0594C25.9077 13.0038 25.8412 12.9507 25.7727 12.9097C25.7142 12.8747 25.6237 12.8298 25.5219 12.8269C25.5195 12.8266 25.515 12.826 25.5081 12.8249C25.4915 12.8222 25.4681 12.818 25.4376 12.812C25.3768 12.8 25.2944 12.7825 25.1956 12.7604C24.9984 12.7164 24.741 12.6556 24.4717 12.5891C19.8602 11.4463 14.8095 8.90877 10.7035 5.68345C9.60622 4.81599 8.82651 4.12624 7.60118 2.92927C7.26062 2.5938 6.93503 2.28412 6.68435 2.05542C6.55925 1.9413 6.45101 1.84569 6.36807 1.77668C6.32694 1.74245 6.28927 1.71245 6.25742 1.68939C6.2417 1.67801 6.22422 1.666 6.20648 1.65545L6.20611 1.65523C6.19502 1.64864 6.16093 1.62836 6.11694 1.61782M25.3454 14.1439C24.9077 14.1023 24.0307 13.8849 23.0766 13.6054M25.3454 14.1439L23.0766 13.6054M6.11694 1.61782C6.11582 1.61755 6.1147 1.61729 6.11357 1.61704L6.05859 1.86092M6.11694 1.61782C6.11726 1.6179 6.11758 1.61798 6.1179 1.61805L6.05859 1.86092M6.05859 1.86092C6.13267 1.87761 6.74805 2.4398 7.42611 3.10774L6.05859 1.86092ZM23.0766 13.6054C22.1145 13.3236 21.0476 12.9707 20.2186 12.6474L23.0766 13.6054Z" stroke="#3E5DE6" stroke-width="0.5"/>
<rect x="3.63608" y="9.19922" width="6.63609" height="17.7627" rx="3" stroke="#3E5DE6" stroke-width="2"/>
<rect x="12.9083" y="14.7637" width="6.63609" height="12.1994" rx="3" stroke="#3E5DE6" stroke-width="2"/>
<rect x="22.1805" y="18.4707" width="6.63609" height="8.49053" rx="3" stroke="#3E5DE6" stroke-width="2"/>
<path d="M25.4985 10.6621L29.3082 14.0485C29.4749 14.1967 29.4273 14.4684 29.2203 14.5513L25.0349 16.2254" stroke="#3E5DE6" stroke-width="1.5" stroke-linecap="round"/>
</svg>


<svg width="50" height="50" viewBox="0 0 50 50" fill="none" xmlns="http://www.w3.org/2000/svg">
<rect width="50" height="50" rx="7" fill="#CFD5F6"/>
<path d="M14.7017 11.6737L14.7012 11.6739C14.5856 11.7359 14.4851 11.8177 14.4145 11.9276C14.3428 12.0391 14.3129 12.1628 14.3129 12.2895C14.3129 12.3674 14.3423 12.4354 14.3617 12.475C14.3846 12.5219 14.4149 12.5707 14.4484 12.6193C14.5156 12.7168 14.6097 12.8334 14.7227 12.963C14.9498 13.2234 15.2692 13.5541 15.6447 13.9205C16.3963 14.6541 17.3848 15.5427 18.3365 16.3184C21.5137 18.9122 25.3198 21.1295 29.2184 22.6473L14.7017 11.6737ZM14.7017 11.6737C14.7656 11.6396 14.8381 11.6205 14.9011 11.6114C14.9629 11.6025 15.0413 11.5995 15.1169 11.6178M14.7017 11.6737L34.3454 24.1439M34.3454 24.1439L34.3477 24.1441C34.4278 24.1509 34.4982 24.1566 34.5574 24.1579C34.6161 24.1592 34.6804 24.157 34.7443 24.1405C34.8941 24.1018 34.9749 24.0007 35.0314 23.9289C35.0782 23.8713 35.1194 23.8051 35.1499 23.7419C35.1763 23.687 35.2117 23.6002 35.2117 23.5109C35.2117 23.4008 35.16 23.305 35.1223 23.2465C35.079 23.1794 35.0232 23.1149 34.9655 23.0594C34.9077 23.0038 34.8412 22.9507 34.7727 22.9097C34.7142 22.8747 34.6237 22.8298 34.5219 22.8269C34.5195 22.8266 34.515 22.826 34.5081 22.8249C34.4915 22.8222 34.4681 22.818 34.4376 22.812C34.3768 22.8 34.2944 22.7825 34.1956 22.7604C33.9984 22.7164 33.741 22.6556 33.4717 22.5891C28.8602 21.4463 23.8095 18.9088 19.7035 15.6835C18.6062 14.816 17.8265 14.1262 16.6012 12.9293C16.2606 12.5938 15.935 12.2841 15.6843 12.0554C15.5593 11.9413 15.451 11.8457 15.3681 11.7767C15.3269 11.7425 15.2893 11.7125 15.2574 11.6894C15.2417 11.678 15.2242 11.666 15.2065 11.6554L15.2061 11.6552C15.195 11.6486 15.1609 11.6284 15.1169 11.6178M34.3454 24.1439C33.9077 24.1023 33.0307 23.8849 32.0766 23.6054M34.3454 24.1439L32.0766 23.6054M15.1169 11.6178C15.1158 11.6176 15.1147 11.6173 15.1136 11.617L15.0586 11.8609M15.1169 11.6178C15.1173 11.6179 15.1176 11.618 15.1179 11.6181L15.0586 11.8609M15.0586 11.8609C15.1327 11.8776 15.748 12.4398 16.4261 13.1077L15.0586 11.8609ZM32.0766 23.6054C31.1145 23.3236 30.0476 22.9707 29.2186 22.6474L32.0766 23.6054Z" fill="#5150A2"/>
<path d="M14.7017 11.6737L14.7012 11.6739C14.5856 11.7359 14.4851 11.8177 14.4145 11.9276C14.3428 12.0391 14.3129 12.1628 14.3129 12.2895C14.3129 12.3674 14.3423 12.4354 14.3617 12.475C14.3846 12.5219 14.4149 12.5707 14.4484 12.6193C14.5156 12.7168 14.6097 12.8334 14.7227 12.963C14.9498 13.2234 15.2692 13.5541 15.6447 13.9205C16.3963 14.6541 17.3848 15.5427 18.3365 16.3184C21.5137 18.9122 25.3198 21.1295 29.2184 22.6473L14.7017 11.6737ZM14.7017 11.6737C14.7656 11.6396 14.8381 11.6205 14.9011 11.6114C14.9629 11.6025 15.0413 11.5995 15.1169 11.6178M14.7017 11.6737L34.3454 24.1439M34.3454 24.1439L34.3477 24.1441C34.4278 24.1509 34.4982 24.1566 34.5574 24.1579C34.6161 24.1592 34.6804 24.157 34.7443 24.1405C34.8941 24.1018 34.9749 24.0007 35.0314 23.9289C35.0782 23.8713 35.1194 23.8051 35.1499 23.7419C35.1763 23.687 35.2117 23.6002 35.2117 23.5109C35.2117 23.4008 35.16 23.305 35.1223 23.2465C35.079 23.1794 35.0232 23.1149 34.9655 23.0594C34.9077 23.0038 34.8412 22.9507 34.7727 22.9097C34.7142 22.8747 34.6237 22.8298 34.5219 22.8269C34.5195 22.8266 34.515 22.826 34.5081 22.8249C34.4915 22.8222 34.4681 22.818 34.4376 22.812C34.3768 22.8 34.2944 22.7825 34.1956 22.7604C33.9984 22.7164 33.741 22.6556 33.4717 22.5891C28.8602 21.4463 23.8095 18.9088 19.7035 15.6835C18.6062 14.816 17.8265 14.1262 16.6012 12.9293C16.2606 12.5938 15.935 12.2841 15.6843 12.0554C15.5593 11.9413 15.451 11.8457 15.3681 11.7767C15.3269 11.7425 15.2893 11.7125 15.2574 11.6894C15.2417 11.678 15.2242 11.666 15.2065 11.6554L15.2061 11.6552C15.195 11.6486 15.1609 11.6284 15.1169 11.6178M34.3454 24.1439C33.9077 24.1023 33.0307 23.8849 32.0766 23.6054M34.3454 24.1439L32.0766 23.6054M15.1169 11.6178C15.1158 11.6176 15.1147 11.6173 15.1136 11.617L15.0586 11.8609M15.1169 11.6178C15.1173 11.6179 15.1176 11.618 15.1179 11.6181L15.0586 11.8609M15.0586 11.8609C15.1327 11.8776 15.748 12.4398 16.4261 13.1077L15.0586 11.8609ZM32.0766 23.6054C31.1145 23.3236 30.0476 22.9707 29.2186 22.6474L32.0766 23.6054Z" fill="#3E5DE6"/>
<path d="M14.7017 11.6737L14.7012 11.6739C14.5856 11.7359 14.4851 11.8177 14.4145 11.9276C14.3428 12.0391 14.3129 12.1628 14.3129 12.2895C14.3129 12.3674 14.3423 12.4354 14.3617 12.475C14.3846 12.5219 14.4149 12.5707 14.4484 12.6193C14.5156 12.7168 14.6097 12.8334 14.7227 12.963C14.9498 13.2234 15.2692 13.5541 15.6447 13.9205C16.3963 14.6541 17.3848 15.5427 18.3365 16.3184C21.5137 18.9122 25.3198 21.1295 29.2184 22.6473L14.7017 11.6737ZM14.7017 11.6737C14.7656 11.6396 14.8381 11.6205 14.9011 11.6114C14.9629 11.6025 15.0413 11.5995 15.1169 11.6178M14.7017 11.6737L34.3454 24.1439M34.3454 24.1439L34.3477 24.1441C34.4278 24.1509 34.4982 24.1566 34.5574 24.1579C34.6161 24.1592 34.6804 24.157 34.7443 24.1405C34.8941 24.1018 34.9749 24.0007 35.0314 23.9289C35.0782 23.8713 35.1194 23.8051 35.1499 23.7419C35.1763 23.687 35.2117 23.6002 35.2117 23.5109C35.2117 23.4008 35.16 23.305 35.1223 23.2465C35.079 23.1794 35.0232 23.1149 34.9655 23.0594C34.9077 23.0038 34.8412 22.9507 34.7727 22.9097C34.7142 22.8747 34.6237 22.8298 34.5219 22.8269C34.5195 22.8266 34.515 22.826 34.5081 22.8249C34.4915 22.8222 34.4681 22.818 34.4376 22.812C34.3768 22.8 34.2944 22.7825 34.1956 22.7604C33.9984 22.7164 33.741 22.6556 33.4717 22.5891C28.8602 21.4463 23.8095 18.9088 19.7035 15.6835C18.6062 14.816 17.8265 14.1262 16.6012 12.9293C16.2606 12.5938 15.935 12.2841 15.6843 12.0554C15.5593 11.9413 15.451 11.8457 15.3681 11.7767C15.3269 11.7425 15.2893 11.7125 15.2574 11.6894C15.2417 11.678 15.2242 11.666 15.2065 11.6554L15.2061 11.6552C15.195 11.6486 15.1609 11.6284 15.1169 11.6178M34.3454 24.1439C33.9077 24.1023 33.0307 23.8849 32.0766 23.6054M34.3454 24.1439L32.0766 23.6054M15.1169 11.6178C15.1158 11.6176 15.1147 11.6173 15.1136 11.617L15.0586 11.8609M15.1169 11.6178C15.1173 11.6179 15.1176 11.618 15.1179 11.6181L15.0586 11.8609M15.0586 11.8609C15.1327 11.8776 15.748 12.4398 16.4261 13.1077L15.0586 11.8609ZM32.0766 23.6054C31.1145 23.3236 30.0476 22.9707 29.2186 22.6474L32.0766 23.6054Z" stroke="#5150A2" stroke-width="0.5"/>
<path d="M14.7017 11.6737L14.7012 11.6739C14.5856 11.7359 14.4851 11.8177 14.4145 11.9276C14.3428 12.0391 14.3129 12.1628 14.3129 12.2895C14.3129 12.3674 14.3423 12.4354 14.3617 12.475C14.3846 12.5219 14.4149 12.5707 14.4484 12.6193C14.5156 12.7168 14.6097 12.8334 14.7227 12.963C14.9498 13.2234 15.2692 13.5541 15.6447 13.9205C16.3963 14.6541 17.3848 15.5427 18.3365 16.3184C21.5137 18.9122 25.3198 21.1295 29.2184 22.6473L14.7017 11.6737ZM14.7017 11.6737C14.7656 11.6396 14.8381 11.6205 14.9011 11.6114C14.9629 11.6025 15.0413 11.5995 15.1169 11.6178M14.7017 11.6737L34.3454 24.1439M34.3454 24.1439L34.3477 24.1441C34.4278 24.1509 34.4982 24.1566 34.5574 24.1579C34.6161 24.1592 34.6804 24.157 34.7443 24.1405C34.8941 24.1018 34.9749 24.0007 35.0314 23.9289C35.0782 23.8713 35.1194 23.8051 35.1499 23.7419C35.1763 23.687 35.2117 23.6002 35.2117 23.5109C35.2117 23.4008 35.16 23.305 35.1223 23.2465C35.079 23.1794 35.0232 23.1149 34.9655 23.0594C34.9077 23.0038 34.8412 22.9507 34.7727 22.9097C34.7142 22.8747 34.6237 22.8298 34.5219 22.8269C34.5195 22.8266 34.515 22.826 34.5081 22.8249C34.4915 22.8222 34.4681 22.818 34.4376 22.812C34.3768 22.8 34.2944 22.7825 34.1956 22.7604C33.9984 22.7164 33.741 22.6556 33.4717 22.5891C28.8602 21.4463 23.8095 18.9088 19.7035 15.6835C18.6062 14.816 17.8265 14.1262 16.6012 12.9293C16.2606 12.5938 15.935 12.2841 15.6843 12.0554C15.5593 11.9413 15.451 11.8457 15.3681 11.7767C15.3269 11.7425 15.2893 11.7125 15.2574 11.6894C15.2417 11.678 15.2242 11.666 15.2065 11.6554L15.2061 11.6552C15.195 11.6486 15.1609 11.6284 15.1169 11.6178M34.3454 24.1439C33.9077 24.1023 33.0307 23.8849 32.0766 23.6054M34.3454 24.1439L32.0766 23.6054M15.1169 11.6178C15.1158 11.6176 15.1147 11.6173 15.1136 11.617L15.0586 11.8609M15.1169 11.6178C15.1173 11.6179 15.1176 11.618 15.1179 11.6181L15.0586 11.8609M15.0586 11.8609C15.1327 11.8776 15.748 12.4398 16.4261 13.1077L15.0586 11.8609ZM32.0766 23.6054C31.1145 23.3236 30.0476 22.9707 29.2186 22.6474L32.0766 23.6054Z" stroke="#3E5DE6" stroke-width="0.5"/>
<rect x="12.6361" y="19.1992" width="6.63609" height="17.7627" rx="3" stroke="#5150A2" stroke-width="2"/>
<rect x="12.6361" y="19.1992" width="6.63609" height="17.7627" rx="3" stroke="#3E5DE6" stroke-width="2"/>
<rect x="21.9083" y="24.7627" width="6.63609" height="12.1994" rx="3" stroke="#5150A2" stroke-width="2"/>
<rect x="21.9083" y="24.7627" width="6.63609" height="12.1994" rx="3" stroke="#3E5DE6" stroke-width="2"/>
<rect x="31.1804" y="28.4717" width="6.63609" height="8.49053" rx="3" stroke="#5150A2" stroke-width="2"/>
<rect x="31.1804" y="28.4717" width="6.63609" height="8.49053" rx="3" stroke="#3E5DE6" stroke-width="2"/>
<path d="M34.4985 20.6631L38.3082 24.0495C38.4749 24.1976 38.4274 24.4694 38.2203 24.5522L34.0349 26.2264" stroke="#5150A2" stroke-width="1.5" stroke-linecap="round"/>
<path d="M34.4985 20.6631L38.3082 24.0495C38.4749 24.1976 38.4274 24.4694 38.2203 24.5522L34.0349 26.2264" stroke="#3E5DE6" stroke-width="1.5" stroke-linecap="round"/>
</svg>
