<svg width="30" height="30" viewBox="0 0 30 30" fill="none" xmlns="http://www.w3.org/2000/svg">
<g clip-path="url(#clip0_1318_26346)">
<path d="M2.11523 0.0654297C1.10742 0.264648 0.251953 1.13184 0.0585938 2.16309C-0.0234375 2.59668 -0.0234375 27.4053 0.0585938 27.8389C0.257812 28.8936 1.10742 29.7432 2.16211 29.9424C2.5957 30.0244 20.2559 30.0244 20.6895 29.9424C21.7441 29.7432 22.5938 28.8936 22.793 27.8389C22.8281 27.6455 22.8516 26.0049 22.8516 23.5322V19.5479L26.209 16.1729C29.3145 13.0557 29.5781 12.7744 29.7305 12.4346C30.0703 11.6553 30.0645 10.917 29.7129 10.1611C29.2441 9.16504 28.0547 8.53223 26.9824 8.71387C26.1621 8.85449 25.9629 9.00098 24.334 10.624L22.8516 12.0947V8.51465C22.8516 6.37012 22.8281 4.81152 22.793 4.62402C22.6582 3.8916 22.4883 3.66895 20.8359 2.0166C19.1836 0.364258 18.9609 0.194336 18.2285 0.0595703C17.8359 -0.0107422 2.49023 -0.0107422 2.11523 0.0654297ZM15.8203 4.0498C15.8203 6.31738 15.8203 6.34668 15.9492 6.5752C16.207 7.03223 16.2129 7.03223 18.8086 7.03223H21.0938V10.4482V13.8584L19.1016 15.8506L17.1094 17.8428L16.4355 19.8701C16.0664 20.9834 15.7617 21.9736 15.7617 22.0674C15.7676 22.4717 16.207 22.9111 16.6113 22.9111C16.8926 22.9111 20.7949 21.5869 20.959 21.4404L21.0938 21.3115V24.4287C21.0938 27.4346 21.0879 27.5518 20.9766 27.7744C20.9004 27.9268 20.7773 28.0498 20.625 28.126C20.3965 28.2432 20.2969 28.2432 11.4258 28.2432C2.73633 28.2432 2.44922 28.2373 2.23828 28.1318C2.10938 28.0674 1.96875 27.9268 1.88672 27.7861L1.75781 27.5518V14.9951V2.43262L1.89844 2.2041C2.18555 1.72949 1.59961 1.76465 9.12891 1.75879H15.8203V4.0498ZM18.0293 1.81738C18.2461 1.89941 20.9062 4.54785 21.0117 4.78809C21.0586 4.89355 21.0938 5.0459 21.0938 5.12793V5.27441H19.3359H17.5781V3.5166V1.75879H17.7188C17.8008 1.75879 17.9355 1.78809 18.0293 1.81738ZM27.7734 10.5479C28.0254 10.6768 28.2422 11.0166 28.2422 11.2861C28.2422 11.5674 28.0254 11.9131 27.5566 12.376L27.0996 12.833L26.4668 12.2002L25.8398 11.5732L26.3203 11.0928C26.5898 10.8291 26.8887 10.5713 26.9824 10.5244C27.2227 10.3955 27.498 10.4072 27.7734 10.5479ZM23.7305 16.2021L21.6211 18.3115L20.9941 17.6787L20.3613 17.0518L22.4707 14.9424L24.5801 12.833L25.207 13.46L25.8398 14.0928L23.7305 16.2021ZM19.7461 18.9561L20.3613 19.5713L20.127 19.7998C19.9277 19.9932 19.7637 20.0693 18.9902 20.3271C18.4922 20.4912 18.0762 20.6143 18.0645 20.6084C18.0586 20.5967 18.1816 20.1807 18.3457 19.6826C18.5918 18.9443 18.6855 18.7393 18.8555 18.5576C18.9727 18.4404 19.084 18.3408 19.1016 18.3408C19.1191 18.3408 19.4062 18.6162 19.7461 18.9561Z" fill="#6DCA65"/>
<path d="M3.99023 8.90039C3.74414 9.0293 3.51562 9.39844 3.51562 9.66211C3.51562 9.94336 3.73828 10.3066 3.99609 10.4355C4.20703 10.541 4.44727 10.5469 10.5469 10.5469C16.7754 10.5469 16.8809 10.5469 17.1094 10.4297C17.373 10.2949 17.5781 9.96094 17.5781 9.66797C17.5781 9.375 17.373 9.04102 17.1094 8.90625C16.8809 8.78906 16.7812 8.78906 10.5352 8.78906C4.54102 8.79492 4.17773 8.80078 3.99023 8.90039Z" fill="#6DCA65"/>
<path d="M3.99023 12.416C3.74414 12.5449 3.51562 12.9141 3.51562 13.1777C3.51562 13.459 3.73828 13.8223 3.99609 13.9512C4.20703 14.0566 4.41211 14.0625 8.78906 14.0625C13.2598 14.0625 13.3711 14.0625 13.5938 13.9453C13.8574 13.8105 14.0625 13.4766 14.0625 13.1836C14.0625 12.8906 13.8574 12.5566 13.5938 12.4219C13.3711 12.3047 13.2598 12.3047 8.77734 12.3047C4.4707 12.3105 4.17773 12.3164 3.99023 12.416Z" fill="#6DCA65"/>
<path d="M3.99023 15.9316C3.74414 16.0605 3.51562 16.4297 3.51562 16.6934C3.51562 16.9746 3.73828 17.3379 3.99609 17.4668C4.20703 17.5723 4.41211 17.5781 8.78906 17.5781C13.2598 17.5781 13.3711 17.5781 13.5938 17.4609C13.8574 17.3262 14.0625 16.9922 14.0625 16.6992C14.0625 16.4062 13.8574 16.0723 13.5938 15.9375C13.3711 15.8203 13.2598 15.8203 8.77734 15.8203C4.4707 15.8262 4.17773 15.832 3.99023 15.9316Z" fill="#6DCA65"/>
<path d="M3.99023 19.4473C3.74414 19.5762 3.51562 19.9453 3.51562 20.209C3.51562 20.4902 3.73828 20.8535 3.99609 20.9824C4.20703 21.0879 4.41211 21.0938 8.78906 21.0938C13.2598 21.0938 13.3711 21.0938 13.5938 20.9766C13.8574 20.8418 14.0625 20.5078 14.0625 20.2148C14.0625 19.9219 13.8574 19.5879 13.5938 19.4531C13.3711 19.3359 13.2598 19.3359 8.77734 19.3359C4.4707 19.3418 4.17773 19.3477 3.99023 19.4473Z" fill="#6DCA65"/>
<path d="M11.0215 24.8379C10.7754 24.9668 10.5469 25.3359 10.5469 25.5996C10.5469 25.8809 10.7695 26.2441 11.0273 26.373C11.2324 26.4785 11.4141 26.4844 14.0625 26.4844C16.7695 26.4844 16.8867 26.4785 17.1094 26.3672C17.373 26.2324 17.5781 25.8984 17.5781 25.6055C17.5781 25.3125 17.373 24.9785 17.1094 24.8438C16.8867 24.7324 16.7754 24.7266 14.0508 24.7266C11.4375 24.7324 11.2031 24.7383 11.0215 24.8379Z" fill="#6DCA65"/>
</g>
<defs>
<clipPath id="clip0_1318_26346">
<rect width="30" height="30" fill="white"/>
</clipPath>
</defs>
</svg>
