<svg width="50" height="50" viewBox="0 0 50 50" fill="none" xmlns="http://www.w3.org/2000/svg">
<rect width="50" height="50" rx="7" fill="#F7D5DF"/>
<path d="M18.7304 13.656C18.0097 13.8611 17.2421 14.4295 16.8671 15.0271C16.7734 15.1795 16.58 15.6014 16.4394 15.9646L16.1933 16.6267L15.8007 16.8318C15.0625 17.2185 14.3007 17.992 13.9316 18.7244C13.6679 19.2459 10.3457 28.0232 10.1933 28.6033C9.89448 29.7283 9.96479 31.076 10.375 32.2361C11.0781 34.1932 12.5898 35.6053 14.6582 36.2264C15.1503 36.3787 15.2617 36.3904 16.2988 36.3904C17.3007 36.3963 17.4648 36.3846 17.9101 36.2557C18.5253 36.0857 19.3632 35.699 19.9082 35.3357C20.7402 34.785 21.6425 33.7127 22.0644 32.7869C22.2578 32.3533 22.539 31.492 22.539 31.3221C22.539 31.2107 22.5976 31.2107 25 31.2107C27.4023 31.2107 27.4609 31.2107 27.4609 31.3221C27.4609 31.492 27.7421 32.3533 27.9355 32.7869C28.3515 33.7068 29.2597 34.785 30.0859 35.3357C30.625 35.6932 31.3574 36.033 32.0019 36.2322C32.4941 36.3787 32.5996 36.3904 33.6425 36.3904C34.6269 36.3963 34.8144 36.3787 35.2539 36.2615C35.9628 36.0623 37.0644 35.5057 37.6269 35.0486C38.7343 34.158 39.5605 32.8279 39.8593 31.451C40.0585 30.531 40.0234 29.3182 39.7656 28.4334C39.5781 27.7771 36.2441 19.0584 36.0332 18.6717C35.6171 17.9041 34.9375 17.2185 34.1992 16.8318L33.8066 16.6209L33.6132 16.1111C33.291 15.2439 33.0507 14.8396 32.6171 14.4295C31.9257 13.7791 31.2343 13.533 30.2324 13.5857C29.541 13.6267 29.166 13.7557 28.5917 14.1541C28.1406 14.4764 27.7773 14.9041 27.5371 15.4197L27.373 15.7713L27.3554 17.9217L27.3378 20.0779H25H22.6621L22.6445 17.9217L22.6269 15.7713L22.4628 15.4197C22.1171 14.6756 21.4316 14.0369 20.6699 13.7439C20.2597 13.5857 19.1464 13.533 18.7304 13.656ZM20.3007 15.5252C20.4355 15.6131 20.6289 15.7947 20.7226 15.9295C20.8867 16.1521 20.8984 16.2049 20.8984 16.6912C20.8984 16.9725 20.8867 17.2068 20.875 17.2068C20.8632 17.2068 20.7109 17.1131 20.541 16.9959C20.3652 16.8787 20.0781 16.7205 19.9023 16.6385C19.5332 16.4744 18.7304 16.2693 18.455 16.2693C18.332 16.2693 18.2617 16.24 18.2617 16.1932C18.2617 16.0291 18.6191 15.6248 18.8886 15.4783C19.1289 15.3553 19.2343 15.3318 19.6152 15.3435C19.9843 15.3611 20.0957 15.3846 20.3007 15.5252ZM31.0937 15.4783C31.3808 15.6248 31.7382 16.0232 31.7382 16.1932C31.7382 16.24 31.6738 16.2693 31.5683 16.2693C31.2929 16.2693 30.5898 16.4334 30.2558 16.574C30.0859 16.6443 29.7695 16.8142 29.541 16.949L29.1308 17.1951L29.1132 16.6971C29.1015 16.281 29.1132 16.1697 29.2187 16.0057C29.3652 15.7713 29.6464 15.5193 29.8925 15.4139C30.1972 15.2791 30.7656 15.3142 31.0937 15.4783ZM19.2636 18.3025C19.8203 18.5779 20.1953 18.9236 20.5117 19.451C20.875 20.0603 20.8984 20.2889 20.8984 23.1541V25.7146L20.5996 25.4568C19.791 24.7713 18.9414 24.3025 17.998 24.033C16.7617 23.6756 15.0625 23.7752 13.955 24.2674C13.7792 24.3435 13.6328 24.3963 13.6328 24.3787C13.6328 24.3142 15.3964 19.7088 15.5019 19.5037C15.6953 19.1228 16.2285 18.5955 16.6328 18.3787C17.207 18.074 17.4003 18.0271 18.121 18.0447C18.7539 18.0564 18.7832 18.0623 19.2636 18.3025ZM33.2089 18.3025C33.748 18.5662 34.1699 18.9529 34.4453 19.4334C34.5683 19.6443 36.3671 24.2732 36.3671 24.3787C36.3671 24.3963 36.2265 24.3494 36.0625 24.2732C35.582 24.0682 34.8261 23.8807 34.2578 23.8396C32.4472 23.6932 30.8359 24.2322 29.4003 25.4568L29.1015 25.7146V23.1541C29.1015 21.0506 29.1191 20.5291 29.1953 20.1951C29.3593 19.4568 29.9218 18.7303 30.5898 18.3728C31.1523 18.074 31.3515 18.0271 32.0664 18.0447C32.6992 18.0564 32.7285 18.0623 33.2089 18.3025ZM27.3437 24.4139V26.992H25H22.6562V24.4139V21.8357H25H27.3437V24.4139ZM17.6757 25.7615C19.2167 26.283 20.3652 27.4842 20.7519 28.9842C20.8867 29.5057 20.9277 30.2791 20.8457 30.8006C20.6875 31.8142 20.2656 32.617 19.4921 33.3904C19.0527 33.824 18.9003 33.9353 18.373 34.1873C17.6289 34.5447 17.1132 34.6678 16.3105 34.6678C14.2363 34.6678 12.455 33.2967 11.8984 31.2635C11.7519 30.742 11.7519 29.5115 11.8984 28.99C12.3437 27.3611 13.5742 26.1482 15.2148 25.7029C15.83 25.5389 17.1074 25.5682 17.6757 25.7615ZM34.6855 25.6795C36.6542 26.1189 38.0957 27.824 38.2246 29.8572C38.3125 31.1932 37.8378 32.3885 36.8359 33.3904C36.3964 33.824 36.2441 33.9353 35.7167 34.1873C34.9726 34.5447 34.457 34.6678 33.6542 34.6678C31.58 34.6678 29.7988 33.2967 29.2421 31.2635C29.166 30.9939 29.1367 30.6775 29.1367 30.1268C29.1367 29.576 29.166 29.2596 29.2421 28.99C29.664 27.4432 30.8007 26.2596 32.3242 25.7732C32.8281 25.6092 32.8925 25.6033 33.6308 25.5916C34.0292 25.5916 34.4218 25.6209 34.6855 25.6795ZM27.3437 29.1014V29.4529H25H22.6562V29.1014V28.7498H25H27.3437V29.1014Z" fill="#5150A2"/>
<path d="M18.7304 13.656C18.0097 13.8611 17.2421 14.4295 16.8671 15.0271C16.7734 15.1795 16.58 15.6014 16.4394 15.9646L16.1933 16.6267L15.8007 16.8318C15.0625 17.2185 14.3007 17.992 13.9316 18.7244C13.6679 19.2459 10.3457 28.0232 10.1933 28.6033C9.89448 29.7283 9.96479 31.076 10.375 32.2361C11.0781 34.1932 12.5898 35.6053 14.6582 36.2264C15.1503 36.3787 15.2617 36.3904 16.2988 36.3904C17.3007 36.3963 17.4648 36.3846 17.9101 36.2557C18.5253 36.0857 19.3632 35.699 19.9082 35.3357C20.7402 34.785 21.6425 33.7127 22.0644 32.7869C22.2578 32.3533 22.539 31.492 22.539 31.3221C22.539 31.2107 22.5976 31.2107 25 31.2107C27.4023 31.2107 27.4609 31.2107 27.4609 31.3221C27.4609 31.492 27.7421 32.3533 27.9355 32.7869C28.3515 33.7068 29.2597 34.785 30.0859 35.3357C30.625 35.6932 31.3574 36.033 32.0019 36.2322C32.4941 36.3787 32.5996 36.3904 33.6425 36.3904C34.6269 36.3963 34.8144 36.3787 35.2539 36.2615C35.9628 36.0623 37.0644 35.5057 37.6269 35.0486C38.7343 34.158 39.5605 32.8279 39.8593 31.451C40.0585 30.531 40.0234 29.3182 39.7656 28.4334C39.5781 27.7771 36.2441 19.0584 36.0332 18.6717C35.6171 17.9041 34.9375 17.2185 34.1992 16.8318L33.8066 16.6209L33.6132 16.1111C33.291 15.2439 33.0507 14.8396 32.6171 14.4295C31.9257 13.7791 31.2343 13.533 30.2324 13.5857C29.541 13.6267 29.166 13.7557 28.5917 14.1541C28.1406 14.4764 27.7773 14.9041 27.5371 15.4197L27.373 15.7713L27.3554 17.9217L27.3378 20.0779H25H22.6621L22.6445 17.9217L22.6269 15.7713L22.4628 15.4197C22.1171 14.6756 21.4316 14.0369 20.6699 13.7439C20.2597 13.5857 19.1464 13.533 18.7304 13.656ZM20.3007 15.5252C20.4355 15.6131 20.6289 15.7947 20.7226 15.9295C20.8867 16.1521 20.8984 16.2049 20.8984 16.6912C20.8984 16.9725 20.8867 17.2068 20.875 17.2068C20.8632 17.2068 20.7109 17.1131 20.541 16.9959C20.3652 16.8787 20.0781 16.7205 19.9023 16.6385C19.5332 16.4744 18.7304 16.2693 18.455 16.2693C18.332 16.2693 18.2617 16.24 18.2617 16.1932C18.2617 16.0291 18.6191 15.6248 18.8886 15.4783C19.1289 15.3553 19.2343 15.3318 19.6152 15.3435C19.9843 15.3611 20.0957 15.3846 20.3007 15.5252ZM31.0937 15.4783C31.3808 15.6248 31.7382 16.0232 31.7382 16.1932C31.7382 16.24 31.6738 16.2693 31.5683 16.2693C31.2929 16.2693 30.5898 16.4334 30.2558 16.574C30.0859 16.6443 29.7695 16.8142 29.541 16.949L29.1308 17.1951L29.1132 16.6971C29.1015 16.281 29.1132 16.1697 29.2187 16.0057C29.3652 15.7713 29.6464 15.5193 29.8925 15.4139C30.1972 15.2791 30.7656 15.3142 31.0937 15.4783ZM19.2636 18.3025C19.8203 18.5779 20.1953 18.9236 20.5117 19.451C20.875 20.0603 20.8984 20.2889 20.8984 23.1541V25.7146L20.5996 25.4568C19.791 24.7713 18.9414 24.3025 17.998 24.033C16.7617 23.6756 15.0625 23.7752 13.955 24.2674C13.7792 24.3435 13.6328 24.3963 13.6328 24.3787C13.6328 24.3142 15.3964 19.7088 15.5019 19.5037C15.6953 19.1228 16.2285 18.5955 16.6328 18.3787C17.207 18.074 17.4003 18.0271 18.121 18.0447C18.7539 18.0564 18.7832 18.0623 19.2636 18.3025ZM33.2089 18.3025C33.748 18.5662 34.1699 18.9529 34.4453 19.4334C34.5683 19.6443 36.3671 24.2732 36.3671 24.3787C36.3671 24.3963 36.2265 24.3494 36.0625 24.2732C35.582 24.0682 34.8261 23.8807 34.2578 23.8396C32.4472 23.6932 30.8359 24.2322 29.4003 25.4568L29.1015 25.7146V23.1541C29.1015 21.0506 29.1191 20.5291 29.1953 20.1951C29.3593 19.4568 29.9218 18.7303 30.5898 18.3728C31.1523 18.074 31.3515 18.0271 32.0664 18.0447C32.6992 18.0564 32.7285 18.0623 33.2089 18.3025ZM27.3437 24.4139V26.992H25H22.6562V24.4139V21.8357H25H27.3437V24.4139ZM17.6757 25.7615C19.2167 26.283 20.3652 27.4842 20.7519 28.9842C20.8867 29.5057 20.9277 30.2791 20.8457 30.8006C20.6875 31.8142 20.2656 32.617 19.4921 33.3904C19.0527 33.824 18.9003 33.9353 18.373 34.1873C17.6289 34.5447 17.1132 34.6678 16.3105 34.6678C14.2363 34.6678 12.455 33.2967 11.8984 31.2635C11.7519 30.742 11.7519 29.5115 11.8984 28.99C12.3437 27.3611 13.5742 26.1482 15.2148 25.7029C15.83 25.5389 17.1074 25.5682 17.6757 25.7615ZM34.6855 25.6795C36.6542 26.1189 38.0957 27.824 38.2246 29.8572C38.3125 31.1932 37.8378 32.3885 36.8359 33.3904C36.3964 33.824 36.2441 33.9353 35.7167 34.1873C34.9726 34.5447 34.457 34.6678 33.6542 34.6678C31.58 34.6678 29.7988 33.2967 29.2421 31.2635C29.166 30.9939 29.1367 30.6775 29.1367 30.1268C29.1367 29.576 29.166 29.2596 29.2421 28.99C29.664 27.4432 30.8007 26.2596 32.3242 25.7732C32.8281 25.6092 32.8925 25.6033 33.6308 25.5916C34.0292 25.5916 34.4218 25.6209 34.6855 25.6795ZM27.3437 29.1014V29.4529H25H22.6562V29.1014V28.7498H25H27.3437V29.1014Z" fill="#DE285E"/>
</svg>

