<svg width="50" height="50" viewBox="0 0 50 50" fill="none" xmlns="http://www.w3.org/2000/svg">
<rect width="50" height="50" rx="7" fill="#E4D8F5"/>
<path d="M17.3325 31.9975L22.0253 22.0253L31.9975 17.3325L27.3047 27.3047L17.3325 31.9975ZM24.665 23.3452C24.315 23.3452 23.9792 23.4842 23.7317 23.7317C23.4842 23.9792 23.3452 24.315 23.3452 24.665C23.3452 25.015 23.4842 25.3508 23.7317 25.5983C23.9792 25.8458 24.315 25.9848 24.665 25.9848C25.015 25.9848 25.3508 25.8458 25.5983 25.5983C25.8458 25.3508 25.9848 25.015 25.9848 24.665C25.9848 24.315 25.8458 23.9792 25.5983 23.7317C25.3508 23.4842 25.015 23.3452 24.665 23.3452ZM24.665 10C26.5908 10 28.4978 10.3793 30.2771 11.1163C32.0563 11.8533 33.673 12.9335 35.0347 14.2953C36.3965 15.6571 37.4767 17.2737 38.2137 19.0529C38.9507 20.8322 39.33 22.7392 39.33 24.665C39.33 28.5544 37.7849 32.2845 35.0347 35.0347C32.2845 37.7849 28.5544 39.33 24.665 39.33C22.7392 39.33 20.8322 38.9507 19.0529 38.2137C17.2737 37.4767 15.6571 36.3965 14.2953 35.0347C11.5451 32.2845 10 28.5544 10 24.665C10 20.7756 11.5451 17.0455 14.2953 14.2953C17.0455 11.5451 20.7756 10 24.665 10ZM24.665 12.933C21.5535 12.933 18.5694 14.169 16.3692 16.3692C14.169 18.5694 12.933 21.5535 12.933 24.665C12.933 27.7765 14.169 30.7606 16.3692 32.9608C18.5694 35.161 21.5535 36.397 24.665 36.397C27.7765 36.397 30.7606 35.161 32.9608 32.9608C35.161 30.7606 36.397 27.7765 36.397 24.665C36.397 21.5535 35.161 18.5694 32.9608 16.3692C30.7606 14.169 27.7765 12.933 24.665 12.933Z" fill="#9A65BE"/>
</svg>
