<svg width="30" height="30" viewBox="0 0 30 30" fill="none" xmlns="http://www.w3.org/2000/svg">
<g clip-path="url(#clip0_1318_26359)">
<path d="M13.5351 0.0351552C10.2129 0.433593 7.45897 1.6582 5.03905 3.82031C3.82616 4.9043 2.60741 6.47461 1.87499 7.89258C1.64061 8.34375 1.62889 8.39648 1.65233 8.75391C1.66991 9.07031 1.70507 9.17578 1.85155 9.35156C2.15038 9.72656 2.30858 9.80859 2.74803 9.83203C3.43944 9.87305 3.65038 9.70312 4.24803 8.61328C5.19139 6.89062 7.07225 5.02734 8.90038 3.99609C10.3359 3.18164 11.918 2.66016 13.5644 2.46094C14.3379 2.36719 15.9199 2.37891 16.6699 2.49023C20.1094 2.98828 23.1094 4.82226 25.166 7.67578C25.4355 8.04492 25.4414 8.04492 24.5391 7.40039C23.6953 6.79687 23.5137 6.7207 23.0801 6.75C22.5234 6.79102 22.1074 7.17773 22.0019 7.74609C21.9433 8.0625 22.1016 8.54883 22.3359 8.76562C22.541 8.95898 27.5273 12.5273 27.7734 12.6562C27.8555 12.6973 28.0664 12.7324 28.248 12.7324C28.6582 12.7324 29.0215 12.5449 29.2558 12.2109L29.4258 11.9707L29.7129 8.87109C29.8711 7.16602 29.9941 5.55469 29.9883 5.29102C29.9707 4.86328 29.9531 4.79297 29.7891 4.58789C29.3086 3.97851 28.4062 3.94336 27.9258 4.51758C27.6914 4.79883 27.6621 4.91016 27.5683 5.84766C27.5273 6.31055 27.4805 6.70312 27.4687 6.71484C27.457 6.72656 27.3105 6.54492 27.1465 6.31055C26.0976 4.79883 24.7441 3.48047 23.1738 2.43164C21.4394 1.27734 19.5644 0.533202 17.4316 0.164062C16.8691 0.0703115 16.4238 0.0410146 15.2344 0.0292959C14.4141 0.0175771 13.6465 0.0234365 13.5351 0.0351552Z" fill="#E9CF42"/>
<path d="M1.48241 17.2803C1.18944 17.3564 0.919909 17.5381 0.744128 17.7959L0.574206 18.0303L0.287097 21.1299C0.128894 22.835 0.00584662 24.4463 0.011706 24.71C0.0292841 25.1436 0.0468623 25.208 0.210925 25.4131C0.451159 25.7061 0.685534 25.835 1.04882 25.8818C1.43553 25.9287 1.80467 25.7881 2.05077 25.5068C2.30858 25.2139 2.33788 25.1025 2.43163 24.1533C2.47264 23.6904 2.51952 23.2979 2.53124 23.2861C2.54296 23.2744 2.68944 23.4561 2.8535 23.6904C3.35155 24.4053 3.86718 25.0205 4.541 25.6943C6.78514 27.9385 9.52733 29.333 12.7441 29.8662C13.6699 30.0186 16.3359 30.0186 17.2441 29.8662C20.2558 29.3564 22.7578 28.1553 25.0019 26.1396C26.1152 25.1436 27.4219 23.4561 28.125 22.1201C28.3535 21.6807 28.3711 21.6279 28.3476 21.2588C28.3301 20.9307 28.3008 20.8311 28.1484 20.6494C27.8496 20.2744 27.6914 20.1924 27.2519 20.1689C26.9297 20.1514 26.8066 20.1689 26.6074 20.2686C26.3379 20.4092 26.209 20.5732 25.7695 21.3584C25.1133 22.5361 23.9004 23.9541 22.8223 24.8271C20.7539 26.4912 18.293 27.4521 15.7324 27.5928C12.7207 27.751 9.94335 26.9072 7.51757 25.1025C6.66796 24.4697 5.51366 23.2744 4.83397 22.3252C4.56444 21.9561 4.55858 21.9561 5.46093 22.6006C6.30468 23.2041 6.48632 23.2803 6.91991 23.251C7.47655 23.21 7.89257 22.8232 7.99803 22.2549C8.05663 21.9385 7.89843 21.4521 7.66405 21.2354C7.47069 21.0537 2.47264 17.4736 2.25585 17.3623C2.08007 17.2686 1.69335 17.2334 1.48241 17.2803Z" fill="#E9CF42"/>
</g>
<defs>
<clipPath id="clip0_1318_26359">
<rect width="30" height="30" fill="white"/>
</clipPath>
</defs>
</svg>
