<svg width="40" height="35" viewBox="0 0 40 35" fill="none" xmlns="http://www.w3.org/2000/svg">
<path d="M1.04713 1.22889C1.7826 0.446871 2.81599 0 3.89593 0C6.04649 0 7.78743 1.74093 7.78743 3.8915C7.78743 4.23596 7.74088 4.58042 7.64778 4.91558L11.8651 7.90403C13.3733 6.37722 15.8404 6.3586 17.3672 7.86679C18.4472 8.93741 18.8102 10.5294 18.2889 11.9631L22.1804 15.2402C23.4093 13.4806 25.8298 13.043 27.5987 14.2719C28.269 14.7374 28.7717 15.4077 29.0417 16.1711L32.2722 14.8585C32.6353 12.7358 34.6369 11.3114 36.7595 11.6745C38.8822 12.0376 40.3066 14.0392 39.9435 16.1618C39.5804 18.2845 37.5788 19.7089 35.4562 19.3458C34.0597 19.113 32.9053 18.1355 32.4305 16.8042L29.2 18.1169C28.8369 20.2395 26.8353 21.6639 24.7126 21.3008C22.8414 20.9843 21.4728 19.3644 21.4728 17.4652C21.4728 17.3442 21.4821 17.2138 21.4915 17.0928L17.2462 13.5085C15.6542 14.9515 13.1964 14.8398 11.7534 13.2479C10.8317 12.2331 10.5152 10.8087 10.9062 9.50531L6.73542 6.54479C5.26447 8.11815 2.80668 8.19263 1.23332 6.73099C-0.340034 5.26004 -0.414513 2.80225 1.04713 1.22889ZM36.1078 17.549C37.225 17.549 38.1374 16.6366 38.1374 15.5194C38.1374 14.4023 37.225 13.4899 36.1078 13.4899C34.9907 13.4899 34.0783 14.4023 34.0783 15.5194C34.0783 16.6366 34.9907 17.549 36.1078 17.549ZM25.3736 19.504C26.4908 19.504 27.4032 18.5917 27.4032 17.4745C27.4032 16.3573 26.4908 15.445 25.3736 15.445C24.2565 15.445 23.3441 16.3573 23.3441 17.4745C23.3441 18.5917 24.2472 19.504 25.3736 19.504ZM14.6301 12.6706C15.7473 12.6706 16.6597 11.7583 16.6597 10.6411C16.6597 9.52393 15.7473 8.61157 14.6301 8.61157C13.513 8.61157 12.6006 9.52393 12.6006 10.6411C12.6006 11.7583 13.513 12.6706 14.6301 12.6706ZM3.89593 5.92104C5.0131 5.92104 5.92546 5.00868 5.92546 3.8915C5.92546 2.77432 5.0131 1.86196 3.89593 1.86196C2.77875 1.86196 1.86639 2.77432 1.86639 3.8915C1.86639 5.01799 2.76944 5.92104 3.89593 5.92104Z" fill="#5150A2" fill-opacity="0.25"/>
<path d="M1.28918 10.8738H6.50267C7.01471 10.8738 7.43365 11.2928 7.43365 11.8048V33.9622C7.43365 34.4742 7.01471 34.8931 6.50267 34.8931H1.28918C0.777144 34.8931 0.358203 34.4742 0.358203 33.9622V11.8048C0.358203 11.2928 0.777144 10.8738 1.28918 10.8738ZM2.22016 33.1243H5.57169V12.7358H2.22016V33.1243Z" fill="#5150A2" fill-opacity="0.25"/>
<path d="M11.9951 17.5769H17.2085C17.7206 17.5769 18.1395 17.9958 18.1395 18.5079V33.9622C18.1395 34.4742 17.7206 34.8931 17.2085 34.8931H11.9951C11.483 34.8931 11.0641 34.4742 11.0641 33.9622V18.5079C11.0641 17.9958 11.483 17.5769 11.9951 17.5769ZM12.926 33.1243H16.2776V19.4389H12.926V33.1243Z" fill="#5150A2" fill-opacity="0.25"/>
<path d="M22.7947 24.5593H28.0082C28.5202 24.5593 28.9391 24.9782 28.9391 25.4902V34.0553C28.9391 34.5673 28.5202 34.9862 28.0082 34.9862H22.7947C22.2826 34.9862 21.8637 34.5673 21.8637 34.0553V25.4902C21.8637 24.9782 22.2826 24.5593 22.7947 24.5593ZM23.7257 33.1243H27.0772V26.4212H23.7257V33.1243Z" fill="#5150A2" fill-opacity="0.25"/>
<path d="M33.501 22.6042H38.7145C39.2265 22.6042 39.6454 23.0232 39.6454 23.5352V34.0553C39.6454 34.5673 39.2265 34.9863 38.7145 34.9863H33.501C32.9889 34.9863 32.57 34.5673 32.57 34.0553V23.5352C32.57 23.0232 32.9889 22.6042 33.501 22.6042ZM34.432 33.1243H37.7835V24.4662H34.432V33.1243Z" fill="#5150A2" fill-opacity="0.25"/>
</svg>
