<svg width="233" height="94" viewBox="0 0 233 94" fill="none" >
<path d="M34.3359 44.6162L33.8472 44.2793C33.3105 43.9092 32.5756 44.0445 32.2058 44.5811C31.8359 45.1176 31.9709 45.8526 32.5076 46.2225L32.9963 46.5594C33.2968 46.7666 33.6591 46.8153 33.985 46.724C34.2413 46.6522 34.4749 46.4939 34.6377 46.2576C35.0076 45.7211 34.8726 44.9861 34.3359 44.6162Z" fill="#5150A2" fill-opacity="0.25"/>
<path d="M35.9393 42.1638C35.299 42.2822 34.8743 42.897 34.992 43.5379L35.0994 44.1215C35.2173 44.7625 35.8324 45.1867 36.4734 45.0688C36.5094 45.0622 36.545 45.0539 36.5797 45.0443C37.1605 44.8817 37.5319 44.2996 37.4207 43.6948L37.3133 43.1111C37.1954 42.4701 36.5803 42.0459 35.9393 42.1638Z" fill="#5150A2" fill-opacity="0.25"/>
<path d="M32.8055 47.4488L32.2218 47.5562C31.5794 47.6729 31.1566 48.2893 31.2745 48.9302C31.3924 49.5712 32.0075 49.9953 32.6485 49.8775L33.2322 49.7701C33.2684 49.7634 33.3038 49.7551 33.3385 49.7456C33.9194 49.5829 34.2908 49.0009 34.1795 48.3961C34.0616 47.7551 33.4465 47.3309 32.8055 47.4488Z" fill="#5150A2" fill-opacity="0.25"/>
<path d="M49.5226 16.5291C49.0049 16.1655 48.3521 16.0273 47.7315 16.1498L28.8526 19.877C28.8787 16.7543 28.1905 13.7484 27.8842 12.5736C27.6564 11.6999 26.8138 11.1588 25.9244 11.315C24.1616 11.6245 18.4305 12.833 15.1957 15.8587C10.937 13.9779 5.11075 14.3451 3.2646 14.5244C2.42093 14.6057 1.78626 15.3087 1.79094 16.1575C1.80245 18.2404 2.08845 25.3431 5.28415 29.2919C7.51303 32.0461 10.0322 33.5386 12.7718 33.7284C13.4508 33.7754 14.0981 33.7371 14.7076 33.6417L28.2731 89.3986C28.5689 90.6143 29.7621 91.3768 30.9895 91.1345L58.533 85.6966C59.7605 85.4543 60.5744 84.2955 60.3859 83.0587L50.4872 18.0855C50.392 17.4601 50.0404 16.8928 49.5226 16.5291ZM26.0876 15.3991C26.5423 17.9505 26.6967 20.7766 26.1338 22.9402C26.1298 22.9557 26.1258 22.9714 26.1216 22.9868C26.1028 23.0577 26.0828 23.1278 26.0622 23.1972C26.0503 23.2376 26.0379 23.2775 26.0256 23.3173C26.0087 23.3713 25.9917 23.425 25.9738 23.4781C25.9543 23.5355 25.934 23.5918 25.9136 23.6476C25.8999 23.6853 25.8866 23.7233 25.8723 23.7605C25.8357 23.8549 25.7982 23.9476 25.7587 24.0373C25.6983 24.1747 25.6361 24.308 25.5732 24.4394C25.5572 24.4728 25.541 24.5062 25.525 24.5393C25.4625 24.6671 25.3993 24.7931 25.3345 24.9152C25.3325 24.919 25.3305 24.9228 25.3285 24.9264C25.2637 25.0482 25.1974 25.1661 25.1304 25.2823C25.1122 25.3136 25.094 25.3448 25.0757 25.3758C25.0093 25.4884 24.9421 25.5989 24.8736 25.7059C24.8694 25.7124 24.8654 25.7188 24.8612 25.7252C24.7924 25.8321 24.7219 25.9355 24.6508 26.0369C24.6307 26.0657 24.6104 26.0943 24.59 26.1227C24.5197 26.2206 24.4486 26.3167 24.3761 26.4094C24.3698 26.4174 24.3636 26.4255 24.3575 26.4335C24.2844 26.5263 24.2099 26.6154 24.1347 26.7029C24.1124 26.7288 24.0901 26.7545 24.0677 26.7799C23.9934 26.8642 23.9183 26.9465 23.8419 27.0257C23.8339 27.034 23.8259 27.0423 23.8179 27.0505C23.7404 27.1299 23.6616 27.2059 23.582 27.2803C23.5579 27.3027 23.5338 27.325 23.5096 27.3469C23.4307 27.4183 23.3513 27.488 23.2704 27.5543C23.2614 27.5617 23.2526 27.569 23.2438 27.5762C23.1613 27.6432 23.0775 27.7069 22.9928 27.7686C22.9675 27.7871 22.9419 27.8055 22.9163 27.8237C22.8321 27.8833 22.7471 27.9409 22.6608 27.9953C22.6527 28.0005 22.6446 28.0057 22.6364 28.0107C22.5479 28.0659 22.4579 28.1176 22.3674 28.1674C22.3411 28.1819 22.3147 28.1961 22.2881 28.2102C22.1977 28.258 22.1067 28.3039 22.0142 28.3465C22.0078 28.3494 22.0015 28.3525 21.995 28.3554C21.8998 28.3987 21.8031 28.4384 21.7058 28.476C21.679 28.4864 21.652 28.4966 21.625 28.5066C21.5281 28.5423 21.4306 28.5762 21.3317 28.6066C21.3286 28.6076 21.3253 28.6089 21.3221 28.6098C21.3232 28.607 21.324 28.6041 21.3251 28.6015C21.4109 28.3752 21.4928 28.136 21.5683 27.8852C21.5742 27.8659 21.5798 27.8467 21.5855 27.8275C21.6204 27.7095 21.6538 27.5895 21.6853 27.4666C21.687 27.4598 21.689 27.4533 21.6905 27.4468C21.7052 27.3894 21.7187 27.3309 21.7325 27.2725L21.7776 27.2739C21.8686 27.2766 21.9574 27.269 22.043 27.2521C22.5708 27.1479 22.9759 26.6905 22.9929 26.13C23.0111 25.5255 22.5712 25.0141 21.9872 24.9278C21.9862 24.8796 21.9855 24.8313 21.9838 24.7836C21.9823 24.7436 21.9794 24.7032 21.9774 24.663C21.9734 24.5831 21.9688 24.5034 21.9626 24.4244C21.9596 24.3886 21.9559 24.3525 21.9525 24.3166C21.9447 24.2324 21.9361 24.1484 21.926 24.0653C21.9217 24.0298 21.9165 23.9941 21.9116 23.9585C21.9002 23.8745 21.8878 23.791 21.874 23.7081C21.871 23.6894 21.8688 23.6713 21.8657 23.6526C21.863 23.6376 21.8592 23.623 21.8565 23.6079C21.8418 23.5262 21.8261 23.4451 21.8091 23.3646L23.4447 23.414C23.5356 23.4167 23.6244 23.4092 23.7101 23.3922C24.2378 23.288 24.643 22.8306 24.6599 22.2701C24.6797 21.6188 24.1674 21.0746 23.5159 21.055L22.4752 21.0235L23.3289 19.6943L24.6139 19.7331C24.7047 19.7358 24.7935 19.7282 24.8792 19.7113C25.4069 19.6071 25.8121 19.1497 25.829 18.589C25.8474 17.9806 25.4018 17.4662 24.8122 17.3848L26.0876 15.3991ZM29.4876 42.7071C26.7228 46.7175 27.4516 52.1143 31.0023 55.2721L30.5872 55.8742C26.6722 52.4637 25.8985 46.6417 28.8935 42.2972C30.4796 39.9964 32.8289 38.5362 35.3686 38.0348C37.6243 37.5895 40.0306 37.9007 42.185 39.0513L41.7699 39.6537C37.5557 37.4583 32.2524 38.6967 29.4876 42.7071ZM40.418 41.6146L32.354 53.3115C29.8676 50.9102 29.4059 46.984 31.4308 44.0469C32.5383 42.4404 34.1862 41.4243 35.9643 41.0733C37.4376 40.7824 39.0005 40.9486 40.418 41.6146ZM26.5554 32.9273L26.581 38.363L21.1454 38.3888L21.1196 32.953L26.5554 32.9273ZM24.102 14.1236L22.8264 16.1095C22.5073 15.6068 21.8545 15.4153 21.3079 15.6852C20.7237 15.974 20.4841 16.6817 20.773 17.2661L21.3429 18.4191L20.4893 19.7479L20.028 18.8145C19.7781 18.3087 19.2147 18.0622 18.6884 18.192C18.3561 17.889 17.9964 17.595 17.6147 17.3084C17.5274 17.2425 17.4402 17.1775 17.3532 17.1145C19.0867 15.7553 21.6539 14.7554 24.102 14.1236ZM14.8668 18.3208C14.8724 18.3239 14.8773 18.3277 14.8829 18.3308C14.9804 18.3838 15.0697 18.4344 15.1528 18.4831C15.2355 18.5325 15.3181 18.5821 15.3978 18.6341C15.4027 18.6373 15.4073 18.6408 15.4122 18.644C15.5705 18.7474 15.7237 18.8522 15.8731 18.958C15.927 18.9961 15.9784 19.0348 16.031 19.0732C16.1296 19.145 16.2273 19.2169 16.3219 19.2898C16.3812 19.3355 16.4389 19.3816 16.4966 19.4276C16.5805 19.4945 16.6629 19.5617 16.7432 19.6294C16.8015 19.6785 16.8593 19.7275 16.9159 19.777C16.9924 19.844 17.0665 19.9114 17.1399 19.9792C17.1936 20.0289 17.2481 20.0784 17.3002 20.1286C17.3772 20.2027 17.4506 20.2775 17.5238 20.3525C17.5668 20.3966 17.6117 20.4402 17.6534 20.4843C17.7614 20.5993 17.8651 20.7153 17.9644 20.8323C18.0028 20.8776 18.0379 20.9236 18.0751 20.9692C18.138 21.0465 18.2007 21.1239 18.2598 21.2021C18.2995 21.2545 18.3367 21.3075 18.3745 21.3603C18.4272 21.4337 18.4791 21.5073 18.5286 21.5816C18.5641 21.635 18.5984 21.6887 18.6323 21.7425C18.6807 21.8193 18.727 21.8966 18.7719 21.9743C18.8013 22.0251 18.8307 22.0759 18.8586 22.1271C18.9067 22.2155 18.9515 22.3044 18.9951 22.3938C19.0151 22.4349 19.0366 22.4755 19.0556 22.5167C19.1785 22.7823 19.2818 23.0524 19.3653 23.3266C19.3761 23.3619 19.3848 23.3975 19.3948 23.4329C19.4237 23.5348 19.4508 23.637 19.4745 23.7399C19.4851 23.7864 19.4944 23.8333 19.5039 23.88C19.5265 23.9905 19.5476 24.1013 19.564 24.213C19.566 24.2272 19.5687 24.2416 19.5707 24.2558C19.5887 24.385 19.6014 24.5154 19.6113 24.6464C19.6135 24.6763 19.616 24.7062 19.6177 24.736C19.6249 24.8552 19.6279 24.975 19.6283 25.0955C19.6284 25.1423 19.6285 25.1891 19.6275 25.2356C19.6268 25.2803 19.6246 25.3245 19.6229 25.3688C19.6183 25.4845 19.6115 25.5992 19.6011 25.7122C19.6003 25.7206 19.5996 25.7289 19.5988 25.7374C19.4961 26.8202 19.1476 27.7697 18.8199 28.4556L17.3171 27.0992L18.0109 23.5578C18.1362 22.9182 17.7192 22.2981 17.0797 22.1728C16.4401 22.0475 15.82 22.4644 15.6947 23.1039L15.2733 25.2545L13.6282 23.7697L14.1551 21.0809C14.2807 20.4417 13.8637 19.8216 13.2241 19.6963C12.5846 19.571 11.9645 19.9881 11.839 20.6274L11.5846 21.9254L10.1223 20.6056L10.4034 19.1712C10.5287 18.5316 10.1117 17.9115 9.47223 17.7862C8.83245 17.6609 8.21249 18.0779 8.08717 18.7173L8.07861 18.7609L5.84196 16.7421C8.37332 16.69 12.2268 16.8912 14.8668 18.3208ZM15.1963 31.1227C14.5155 31.3173 13.7519 31.43 12.9346 31.3733C10.8753 31.231 8.91869 30.0311 7.11881 27.807C5.14378 25.3665 4.48151 21.1926 4.26049 18.4943L6.49736 20.5133L6.45442 20.5265C5.83104 20.7166 5.47958 21.376 5.66952 21.9994C5.84764 22.5841 6.43866 22.9293 7.0257 22.8134C7.06474 22.8057 7.1037 22.796 7.14241 22.7841L8.54105 22.3579L10.0031 23.6775L8.73788 24.0631C8.1145 24.2531 7.76304 24.9126 7.95298 25.536C8.1311 26.1207 8.72212 26.4659 9.309 26.35C9.34805 26.3423 9.387 26.3326 9.42587 26.3207L12.0468 25.5219L13.6652 26.9826L11.6359 27.6011C11.0125 27.7912 10.661 28.4506 10.851 29.074C11.0291 29.6587 11.6201 30.004 12.2072 29.8881C12.2462 29.8804 12.2852 29.8706 12.3239 29.8588L15.7088 28.8272L17.239 30.2083C16.7219 30.5248 16.0407 30.8709 15.2463 31.1053C15.2292 31.1103 15.2132 31.117 15.1963 31.1227ZM58.0481 83.3864L30.5597 88.8133L29.7323 85.4127C33.543 85.0619 38.549 84.3002 43.7461 83.2742C48.9432 82.2482 53.8629 81.0502 57.521 79.9265L58.0481 83.3864ZM48.5751 21.2059L35.5507 23.7772C34.9114 23.9035 34.4953 24.5242 34.6216 25.1637C34.7478 25.803 35.3685 26.219 36.0079 26.0928L48.9309 23.5415L57.1615 77.5669C53.5535 78.6959 48.574 79.9152 43.2888 80.9586C38.0036 82.0021 32.9343 82.7667 29.168 83.0936L28.2721 79.411C28.574 79.758 29.0186 79.9776 29.5135 79.9753L35.9432 79.9448C36.0491 79.9444 36.1527 79.9338 36.253 79.914C37.007 79.7651 37.5757 79.0971 37.5719 78.3007L37.5413 71.8715C37.5395 71.4343 37.3673 71.024 37.0565 70.7162C36.746 70.4086 36.3344 70.2404 35.8971 70.2424L29.4674 70.2729C28.565 70.2767 27.8344 71.0148 27.8387 71.917L27.8662 77.7435L16.9778 32.9896C17.6929 32.6892 18.2998 32.3423 18.7735 32.0317C18.7627 32.1094 18.7554 32.1879 18.7558 32.2685L18.7881 39.0952C18.7902 39.5399 18.9654 39.9572 19.2813 40.2702C19.5972 40.5832 20.0162 40.7543 20.4607 40.7522L27.1219 40.7207C27.0647 40.7998 27.0055 40.8769 26.9498 40.9577C23.0949 46.5493 24.3184 54.1322 29.7351 58.2208C30.0938 58.4916 30.5544 58.6058 30.9985 58.534C31.0171 58.5309 31.0357 58.5276 31.0542 58.5239C31.4763 58.4406 31.855 58.1928 32.0997 57.838L37.8487 49.4989L43.0857 41.9024C43.0859 41.9022 43.086 41.902 43.0861 41.9018L44.5579 39.7669C44.8133 39.3965 44.9075 38.9312 44.8166 38.4902C44.7258 38.0496 44.4553 37.6598 44.0746 37.4207C39.1997 34.3605 33.0499 35.0144 28.9422 38.694L28.9116 32.2204C28.9096 31.7757 28.7344 31.3584 28.4184 31.0455C28.1025 30.7326 27.6838 30.5614 27.2391 30.5635L22.8072 30.5845C22.8427 30.5695 22.8782 30.5534 22.9137 30.5377C22.9398 30.5261 22.966 30.515 22.9922 30.5031C23.0747 30.4655 23.1575 30.4266 23.2399 30.3853C23.2465 30.3821 23.2528 30.3784 23.2594 30.3752C23.3355 30.3369 23.4117 30.297 23.4878 30.2555C23.5145 30.241 23.541 30.2258 23.5675 30.2109C23.6241 30.1792 23.6806 30.1471 23.737 30.1137C23.767 30.0959 23.7971 30.0776 23.8272 30.0593C23.8814 30.0262 23.9355 29.9922 23.9895 29.9573C24.0188 29.9384 24.0483 29.9196 24.0775 29.9002C24.1373 29.8605 24.197 29.8194 24.2567 29.7776C24.2791 29.762 24.3015 29.7468 24.324 29.7308C24.4057 29.6722 24.4872 29.6117 24.5685 29.549C24.5827 29.538 24.5966 29.5263 24.6108 29.5153C24.6777 29.4628 24.7444 29.4092 24.811 29.3538C24.8379 29.3313 24.8645 29.3081 24.8915 29.2853C24.9458 29.2388 25 29.1917 25.054 29.1432C25.0829 29.1173 25.1117 29.0911 25.1405 29.0646C25.194 29.0154 25.2472 28.9649 25.3002 28.9136C25.3273 28.8874 25.3543 28.8617 25.3812 28.835C25.443 28.7738 25.5045 28.7108 25.5658 28.6466C25.5829 28.6286 25.6002 28.6116 25.6171 28.5933C25.6952 28.5103 25.7728 28.4249 25.8497 28.3369C25.8683 28.3158 25.8865 28.2934 25.905 28.272C25.9633 28.2042 26.0215 28.1354 26.0792 28.0647C26.0831 28.0599 26.087 28.0555 26.0911 28.0507L30.6204 27.1565C31.2597 27.0302 31.6758 26.4095 31.5495 25.7702C31.4233 25.1308 30.8026 24.7147 30.1632 24.8409L27.7712 25.3131C27.8209 25.2065 27.8704 25.0989 27.9188 24.9886C27.9712 24.8698 28.0206 24.7473 28.0687 24.6231C28.0815 24.5902 28.0938 24.5568 28.1062 24.5236C28.1439 24.423 28.1801 24.3207 28.2149 24.2169C28.223 24.1928 28.2313 24.1689 28.2392 24.1447C28.424 23.5804 28.5689 22.9711 28.6713 22.3186L48.1585 18.4713L48.5751 21.2059ZM30.226 77.6117L30.2023 72.6296L35.1844 72.606L35.2081 77.5881L30.226 77.6117Z" fill="#5150A2" fill-opacity="0.25"/>
<path d="M51.5551 48.3877C51.2203 48.0562 50.7764 47.8748 50.3055 47.877L42.0821 47.9159C41.6105 47.9181 41.1686 48.1038 40.8371 48.4386C40.5055 48.7733 40.3241 49.2171 40.3264 49.6883L40.3653 57.9117C40.3653 57.9117 40.3653 57.9117 40.3653 57.9119C40.3701 58.8845 41.1651 59.6719 42.1376 59.6672L50.3612 59.6282C50.4754 59.6277 50.5869 59.6162 50.695 59.5949C51.5077 59.4344 52.1207 58.7142 52.1165 57.856L52.0776 49.6325C52.0753 49.1614 51.8898 48.7193 51.5551 48.3877ZM49.7534 57.2709L42.7228 57.3041L42.6896 50.2735L49.7202 50.2401L49.7534 57.2709Z" fill="#5150A2" fill-opacity="0.25"/>
<path d="M50.7867 63.4129C46.922 60.8919 40.464 61.2624 38.577 61.4362C37.6939 61.5178 37.0084 62.2759 37.0181 63.1631C37.0382 65.0583 37.3293 71.5206 40.2318 75.1073C42.287 77.6469 44.6131 79.0235 47.1459 79.1988C47.8976 79.2508 48.6084 79.191 49.2661 79.0611C51.8862 78.5438 53.6558 76.9156 53.7476 76.8297C53.796 76.7844 53.8406 76.735 53.8808 76.682C53.9759 76.5569 56.2037 73.5737 55.563 69.873C55.1301 67.3713 53.523 65.1979 50.7867 63.4129ZM47.3089 76.844C45.4564 76.7157 43.6926 75.632 42.0664 73.6224C40.5384 71.7344 39.7662 68.4497 39.4939 65.4205L41.2251 66.9829C40.6815 67.2181 40.3892 67.829 40.5661 68.409C40.7444 68.9936 41.3352 69.3389 41.9221 69.2231C41.9611 69.2153 42.0001 69.2056 42.039 69.1937L43.2617 68.821L44.4216 69.8678L43.4373 70.1678C42.8139 70.3579 42.4625 71.0173 42.6524 71.6407C42.8307 72.2254 43.4216 72.5707 44.0085 72.4548C44.0475 72.4471 44.0864 72.4373 44.1253 72.4255L46.4652 71.7122L47.7679 72.888L46.0856 73.4007C45.4622 73.5908 45.1107 74.2502 45.3007 74.8736C45.4788 75.4583 46.0698 75.8035 46.6567 75.6877C46.6957 75.68 46.7347 75.6702 46.7735 75.6583L49.8116 74.7324L51.0692 75.8675C50.1979 76.3833 48.8602 76.9515 47.3089 76.844ZM52.6458 74.1118L51.4174 73.003L52.0405 69.8235C52.1658 69.1839 51.7488 68.5638 51.1093 68.4384C50.4697 68.3131 49.8498 68.7301 49.7243 69.3696L49.3739 71.1584L48.0468 69.9605L48.5173 67.5601C48.6425 66.9204 48.2256 66.3003 47.5861 66.175C46.9465 66.0497 46.3265 66.4667 46.2011 67.1062L46.0032 68.1159L44.8434 67.0689L45.0891 65.8148C45.2144 65.1752 44.7976 64.5551 44.158 64.4298C43.5631 64.3133 42.9856 64.6662 42.8069 65.2308L41.0757 63.6682C44.1167 63.6297 47.4631 64.0623 49.4976 65.3896C51.654 66.7963 52.9112 68.4329 53.234 70.2536C53.5039 71.7794 53.0711 73.1825 52.6458 74.1118Z" fill="#5150A2" fill-opacity="0.25"/>
<path d="M112.563 36.7588C113.298 36.7588 113.894 36.163 113.894 35.428C113.894 34.6931 113.298 34.0973 112.563 34.0973C111.828 34.0973 111.232 34.6931 111.232 35.428C111.232 36.163 111.828 36.7588 112.563 36.7588Z" fill="#5150A2" fill-opacity="0.25"/>
<path d="M135.217 41.1945C135.952 41.1945 136.547 40.5988 136.547 39.8638C136.547 39.1288 135.952 38.533 135.217 38.533C134.481 38.533 133.886 39.1288 133.886 39.8638C133.886 40.5988 134.482 41.1945 135.217 41.1945Z" fill="#5150A2" fill-opacity="0.25"/>
<path d="M108.379 31.2184C109.114 31.2184 109.71 30.6226 109.71 29.8877C109.71 29.1527 109.114 28.5569 108.379 28.5569C107.644 28.5569 107.048 29.1527 107.048 29.8877C107.048 30.6226 107.644 31.2184 108.379 31.2184Z" fill="#5150A2" fill-opacity="0.25"/>
<path d="M124.91 51.5534C125.645 51.5534 126.24 50.9576 126.24 50.2226C126.24 49.4876 125.645 48.8918 124.91 48.8918C124.175 48.8918 123.579 49.4876 123.579 50.2226C123.579 50.9576 124.175 51.5534 124.91 51.5534Z" fill="#5150A2" fill-opacity="0.25"/>
<path d="M126.24 34.0972C126.24 34.8322 126.836 35.428 127.571 35.428C128.306 35.428 128.902 34.8322 128.902 34.0972C128.902 33.3622 128.306 32.7665 127.571 32.7665C126.836 32.7665 126.24 33.3622 126.24 34.0972Z" fill="#5150A2" fill-opacity="0.25"/>
<path d="M121.919 41.0798C122.654 41.0798 123.25 40.4839 123.25 39.749C123.25 39.014 122.654 38.4182 121.919 38.4182C121.184 38.4182 120.588 39.014 120.588 39.749C120.588 40.4839 121.184 41.0798 121.919 41.0798Z" fill="#5150A2" fill-opacity="0.25"/>
<path d="M133.886 30.3091C134.621 30.3091 135.216 29.7133 135.216 28.9784C135.216 28.2434 134.621 27.6476 133.886 27.6476C133.151 27.6476 132.555 28.2434 132.555 28.9784C132.555 29.7133 133.151 30.3091 133.886 30.3091Z" fill="#5150A2" fill-opacity="0.25"/>
<path d="M137.734 34.158C138.469 34.158 139.065 33.5622 139.065 32.8272C139.065 32.0922 138.469 31.4964 137.734 31.4964C136.999 31.4964 136.404 32.0922 136.404 32.8272C136.404 33.5622 136.999 34.158 137.734 34.158Z" fill="#5150A2" fill-opacity="0.25"/>
<path d="M109.71 43.856C110.445 43.856 111.04 43.2602 111.04 42.5252C111.04 41.7903 110.445 41.1945 109.71 41.1945C108.975 41.1945 108.379 41.7903 108.379 42.5252C108.379 43.2602 108.975 43.856 109.71 43.856Z" fill="#5150A2" fill-opacity="0.25"/>
<path d="M141.273 2.52982C139.884 1.15515 138.065 0.408734 136.148 0.429364C134.503 0.446555 132.899 1.03028 131.627 2.07316C130.334 1.01262 128.702 0.428895 127.029 0.428895C125.356 0.428895 123.724 1.0123 122.431 2.07301C121.138 1.01262 119.506 0.428895 117.832 0.428895C116.159 0.428895 114.528 1.01246 113.234 2.07301C111.963 1.02996 110.358 0.446399 108.713 0.429207C106.795 0.409672 104.977 1.15515 103.588 2.52982C102.183 3.91982 101.378 5.84071 101.378 7.80004V30.1235C101.378 39.1268 102.312 48.1605 104.153 56.9736L104.221 57.2968C105.093 61.4704 105.758 65.737 106.199 69.9782L106.88 76.5253C107.112 78.7606 108.983 80.4464 111.23 80.4464H133.631C135.879 80.4464 137.749 78.7606 137.981 76.5253L138.662 69.9782C139.083 65.9286 139.719 61.8122 140.552 57.7435C140.682 57.109 140.273 56.4895 139.639 56.3594C139.004 56.2293 138.385 56.6386 138.255 57.2729C137.406 61.4166 136.758 65.6098 136.329 69.7357L135.649 76.2827C135.541 77.3195 134.674 78.1014 133.631 78.1014H111.23C110.188 78.1014 109.32 77.3195 109.213 76.2827L108.532 69.7358C108.083 65.4152 107.404 61.0688 106.516 56.8172L106.449 56.4939C104.64 47.8382 103.723 38.9659 103.723 30.1235V26.1073C103.819 26.1091 103.914 26.1109 104.013 26.1109C106.56 26.1109 107.902 25.5263 109.086 25.0105C110.201 24.5248 111.164 24.1055 113.221 24.1055C113.52 24.1055 113.795 24.115 114.051 24.1318V25.3115C114.051 25.9592 114.576 26.4841 115.224 26.4841C115.872 26.4841 116.397 25.9592 116.397 25.3115V19.4984C116.397 18.1395 115.291 17.0338 113.932 17.0338H103.723V14.9449H141.138V17.0338H134.037C132.678 17.0338 131.572 18.1393 131.572 19.4984V22.8097C131.572 23.8401 130.734 24.6786 129.704 24.6786C128.673 24.6786 127.835 23.8403 127.835 22.8097V19.4984C127.835 18.1395 126.729 17.0338 125.37 17.0338H122.599C121.24 17.0338 120.134 18.1393 120.134 19.4984V28.9834C120.134 30.0138 119.296 30.8523 118.265 30.8523C117.643 30.8523 117.064 30.5439 116.715 30.0276C116.352 29.4911 115.623 29.3499 115.087 29.7125C114.55 30.0751 114.409 30.804 114.771 31.3405C115.557 32.5033 116.863 33.1975 118.265 33.1975C120.589 33.1975 122.479 31.3071 122.479 28.9836V26.1103C124.271 26.1047 125.462 25.8085 126.425 25.4531C127.198 26.4102 128.38 27.0238 129.703 27.0238C131.509 27.0238 133.052 25.8826 133.651 24.284C134.484 24.451 135.103 24.7184 135.774 25.0108C136.958 25.5266 138.3 26.1111 140.847 26.1111C140.946 26.1111 141.042 26.1091 141.138 26.1075V30.1237C141.138 37.4192 140.512 44.7646 139.276 51.9554C139.167 52.5936 139.595 53.1998 140.233 53.3096C140.872 53.4193 141.478 52.9907 141.588 52.3525C142.845 45.0309 143.483 37.5519 143.483 30.1237V7.80004C143.483 5.84071 142.678 3.91982 141.273 2.52982ZM113.932 19.3788C113.998 19.3788 114.051 19.4324 114.051 19.4982V21.7828C113.789 21.7683 113.513 21.7601 113.22 21.7601C110.675 21.7601 109.333 22.3446 108.149 22.8604C107.034 23.3461 106.071 23.7657 104.013 23.7657C103.915 23.7657 103.819 23.764 103.723 23.7621V19.3788H113.932ZM122.479 23.7651V19.4982C122.479 19.4324 122.533 19.3788 122.599 19.3788H125.37C125.436 19.3788 125.49 19.4324 125.49 19.4982V22.8096C125.49 22.9717 125.5 23.1312 125.518 23.2886C124.744 23.5654 123.859 23.7604 122.479 23.7651ZM141.138 23.7621C141.043 23.7642 140.946 23.7657 140.847 23.7657C138.789 23.7657 137.826 23.3463 136.711 22.8605C135.942 22.5258 135.106 22.1621 133.918 21.9481V19.4982C133.918 19.4324 133.971 19.3788 134.037 19.3788H141.138V23.7621ZM141.138 12.5997H103.723V7.80004C103.723 6.46272 104.275 5.14931 105.238 4.19691C106.178 3.26624 107.409 2.76206 108.688 2.77425C109.823 2.78613 110.885 3.1745 111.76 3.89716C112.614 4.60247 113.854 4.60169 114.711 3.89497C115.587 3.17215 116.695 2.77394 117.832 2.77394C118.969 2.77394 120.078 3.172 120.954 3.89497C121.81 4.60122 123.052 4.60106 123.907 3.89497C124.783 3.17215 125.892 2.77394 127.029 2.77394C128.166 2.77394 129.275 3.172 130.15 3.89497C131.007 4.60169 132.248 4.60262 133.101 3.89716C133.976 3.1745 135.038 2.78613 136.173 2.77425C136.19 2.7741 136.206 2.7741 136.223 2.7741C137.489 2.7741 138.695 3.27811 139.624 4.19691C140.586 5.14946 141.138 6.46287 141.138 7.8002V12.5997H141.138Z" fill="#5150A2" fill-opacity="0.25"/>
<path d="M187.512 41.2721C185.684 50.7908 190.793 60.1311 199.465 63.8536L196.194 80.884L184.534 84.1673C183.885 84.3502 183.446 84.9565 183.474 85.6311C183.502 86.3063 183.99 86.8728 184.653 87L213.218 92.4866C213.88 92.6138 214.543 92.2684 214.819 91.6516C215.096 91.0355 214.913 90.3103 214.377 89.8991L204.764 82.5299L208.035 65.4995C217.731 65.2472 225.914 58.135 227.562 48.6394C228.207 44.9562 227.727 44.3743 227.035 20.3515C227.012 19.6727 226.523 19.1001 225.857 18.9722L218.858 17.628C218.07 17.4765 217.307 17.994 217.155 18.7841C217.004 19.5742 217.52 20.3374 218.309 20.4889L224.169 21.6144C224.169 21.6144 224.966 45.2207 224.955 45.5901C222.236 43.5347 218.897 41.4634 215.79 40.7711C212.51 40.038 209.175 41.1193 205.951 42.1636C202.897 43.1534 200.012 44.0884 197.735 43.2547C195.854 42.5667 193.758 40.6908 191.646 37.8134L200.738 17.1141L206.883 18.2943C207.672 18.4458 208.434 17.9283 208.586 17.1382C208.738 16.3481 208.221 15.5849 207.432 15.4334L200.148 14.0343C199.482 13.9063 198.815 14.2569 198.542 14.8788C188.037 38.8051 188.135 38.0261 187.512 41.2721V41.2721ZM207.717 88.4636L191.252 85.3011L197.846 83.4446C198.376 83.295 198.777 82.8581 198.881 82.3166L202.243 64.8124C202.711 64.9371 203.185 65.0477 203.661 65.1392C204.137 65.2307 204.618 65.3034 205.099 65.361L201.737 82.8653C201.633 83.4073 201.844 83.9611 202.281 84.2965L207.717 88.4636ZM206.846 44.9351C209.698 44.0113 212.647 43.0551 215.157 43.6147C217.654 44.1709 220.962 46.06 224.53 48.9575C222.508 57.8893 213.578 64.1563 204.068 62.2492C194.335 60.2981 188.297 50.5586 190.523 41.1047C192.602 43.6015 194.685 45.2408 196.735 45.9909C199.977 47.1779 203.529 46.0101 206.846 44.9351Z" fill="#5150A2" fill-opacity="0.25"/>
<path d="M214.412 18.2728C214.259 19.0712 213.487 19.594 212.689 19.4407C211.89 19.2873 211.368 18.5159 211.521 17.7175C211.674 16.9191 212.446 16.3963 213.244 16.5496C214.043 16.703 214.565 17.4744 214.412 18.2728Z" fill="#5150A2" fill-opacity="0.25"/>
</svg>
