<svg width="31" height="37" viewBox="0 0 31 37" fill="none" >
<path d="M17.6082 32.3782C17.2202 32.3782 16.9053 32.6946 16.9053 33.0846C16.9053 33.4745 17.2202 33.7909 17.6082 33.7909C17.9962 33.7909 18.3112 33.4745 18.3112 33.0846C18.3112 32.6946 17.9962 32.3782 17.6082 32.3782Z" fill="#DE285E"/>
<path d="M7.73298 14.6486C7.34474 14.6486 7.03003 14.9648 7.03003 15.3549V28.8468C7.03003 29.2369 7.34474 29.5532 7.73298 29.5532C8.12121 29.5532 8.43592 29.2369 8.43592 28.8468V15.3549C8.43592 14.9648 8.12121 14.6486 7.73298 14.6486Z" fill="#DE285E"/>
<path d="M13.3553 14.6486C12.9671 14.6486 12.6523 14.9648 12.6523 15.3549V28.8468C12.6523 29.2369 12.9671 29.5532 13.3553 29.5532C13.7435 29.5532 14.0582 29.2369 14.0582 28.8468V15.3549C14.0582 14.9648 13.7435 14.6486 13.3553 14.6486Z" fill="#DE285E"/>
<path d="M27.4853 11.8727H23.9705V9.73528C25.0724 8.90522 25.5961 7.5022 25.2855 6.11692C24.995 4.81789 23.9279 3.75775 22.6306 3.47895C21.941 3.33025 21.2464 3.38288 20.6135 3.62467C19.9789 2.61928 18.8644 1.9834 17.644 1.9834C17.184 1.9834 16.7344 2.07304 16.3188 2.24554C15.1422 1.13023 13.591 0.5 11.9853 0.5C9.86123 0.5 7.88033 1.58733 6.71104 3.36642C3.03673 3.16213 0 6.09142 0 9.70342V18.18C0 19.3485 0.961773 20.2991 2.14399 20.2991C2.40331 20.2991 2.6518 20.2517 2.88209 20.1654V33.1348C2.88209 35.0822 4.4588 36.6667 6.39683 36.6667H20.4558C22.3938 36.6667 23.9705 35.0822 23.9705 33.1348V31.0156H27.4853C29.4233 31.0156 31 29.4312 31 27.4837V15.4046C31 13.4571 29.4233 11.8727 27.4853 11.8727ZM22.5646 32.4284H20.4199C20.0317 32.4284 19.717 32.7446 19.717 33.1348C19.717 33.5249 20.0317 33.8341 20.4199 33.8341H22.4437C22.1535 34.6562 21.3721 35.2539 20.4558 35.2539H6.39683C5.48046 35.2539 4.69907 34.6633 4.40889 33.8411H14.7978C15.186 33.8411 15.5007 33.5249 15.5007 33.1348C15.5007 32.7446 15.186 32.4284 14.7978 32.4284H4.28798V18.1644V13.1799C5.86701 12.9404 7.23432 11.9411 7.95315 10.46C8.09979 10.46 8.22899 10.511 8.32635 10.607C9.11969 11.391 10.1695 11.8226 11.2823 11.8226C12.4357 11.8226 13.5124 11.3638 14.3145 10.5303C14.3574 10.4857 14.418 10.46 14.4807 10.46C15.575 10.46 16.291 10.6949 16.609 11.158C16.8712 11.5398 16.871 12.0703 16.8707 12.4966V15.3545C16.8707 16.2754 17.4585 17.0606 18.2766 17.3522V28.8464C18.2766 29.2365 18.5914 29.5528 18.9796 29.5528C19.3678 29.5528 19.6825 29.2365 19.6825 28.8464V17.3521C20.5007 17.0605 21.0884 16.2754 21.0884 15.3545V10.377C21.5809 10.4758 22.0834 10.4764 22.5646 10.3775V32.4284ZM20.7041 8.7609C20.4862 8.64951 20.2264 8.65989 20.0179 8.78838C19.8095 8.9168 19.6825 9.14482 19.6825 9.3905V15.3545C19.6825 15.744 19.3671 16.0608 18.9795 16.0608C18.5919 16.0608 18.2766 15.744 18.2766 15.3545V12.497C18.2768 11.9407 18.2771 11.0999 17.7662 10.3556C17.1701 9.48741 16.0647 9.0472 14.4807 9.0472C14.0386 9.0472 13.6094 9.23008 13.3034 9.54866C12.769 10.104 12.0512 10.4098 11.2823 10.4098C10.5405 10.4098 9.84078 10.1221 9.3116 9.59909C8.95078 9.24315 8.46834 9.0472 7.95315 9.0472C7.42039 9.0472 6.92523 9.35779 6.69164 9.83848C6.10243 11.0509 4.90967 11.8112 3.57899 11.8226C3.19314 11.826 2.88202 12.1412 2.88202 12.529V18.1465C2.85727 18.5625 2.53539 18.8864 2.14399 18.8864C1.74394 18.8864 1.4059 18.5628 1.4059 18.18V9.70342C1.4059 6.97708 3.62595 4.76922 6.35514 4.76922C6.56722 4.76922 6.78042 4.78278 6.99349 4.81026C7.27783 4.84692 7.55571 4.70635 7.69594 4.45523C8.57154 2.887 10.2151 1.91276 11.9853 1.91276C13.3722 1.91276 14.7093 2.52131 15.6537 3.58243C15.8826 3.83969 16.263 3.8931 16.5534 3.70852C16.8749 3.50416 17.252 3.39616 17.644 3.39616C18.5388 3.39616 19.3387 3.96557 19.6342 4.81294C19.7062 5.01921 19.8691 5.18047 20.0755 5.24956C20.2818 5.31864 20.5084 5.28784 20.6891 5.16606C21.1682 4.84325 21.7529 4.73468 22.336 4.86041C23.0952 5.02359 23.744 5.66766 23.9139 6.42709C24.314 8.21169 22.4936 9.67559 20.7041 8.7609ZM23.9705 16.111H26.7823V26.7773H23.9705V16.111ZM29.5941 27.4837C29.5941 28.6522 28.6481 29.6029 27.4853 29.6029H23.9705V28.1901H27.4853C27.8735 28.1901 28.1882 27.8738 28.1882 27.4837V15.4046C28.1882 15.0145 27.8735 14.6982 27.4853 14.6982H23.9705V13.2855H27.4853C28.6481 13.2855 29.5941 14.2361 29.5941 15.4046V27.4837Z" fill="#DE285E"/>
</svg>
