<svg width="22" height="67" viewBox="0 0 22 67" fill="none" >
<path fill-rule="evenodd" clip-rule="evenodd" d="M11.061 0.666838L14.488 0.655273C14.534 0.659129 14.5787 0.662983 14.6247 0.666838C15.1899 0.812046 15.2281 0.909708 15.2793 1.41729C15.3503 6.75142 15.4095 12.074 15.4673 17.3991L15.4844 18.9938C15.5698 19.0259 15.654 19.0606 15.7381 19.0953C18.8878 20.4048 21.8428 23.0506 21.8586 26.4765C21.7429 38.6611 22.0821 51.0294 21.9809 63.1266C21.969 64.0891 21.7193 65.0708 21.0502 65.7326C20.6755 66.104 20.2023 66.37 19.6923 66.5191C19.5792 66.5936 19.4451 66.6424 19.2966 66.6553H3.2644H3.26308H2.82402C2.68074 66.6424 2.54929 66.5923 2.43755 66.5165C1.19925 66.1233 0.22517 64.9398 0.148926 63.507C-0.192855 57.0703 0.156814 50.3908 0.18442 43.6958C0.197565 40.5899 0.210711 37.4853 0.225171 34.3807C0.237001 31.7451 0.288269 29.1057 0.261978 26.4765C0.277752 23.1689 3.35641 20.2955 6.6086 19.0041L6.63752 18.9938C6.69799 13.2305 6.76371 7.47617 6.83864 1.71799L6.84259 1.41729C6.90568 0.796626 7.0516 0.704104 7.63394 0.655273L11.061 0.666838ZM8.2268 17.8874C8.22023 18.4374 8.21497 18.9861 8.2084 19.5348C8.2084 19.5348 7.98098 20.1336 7.26587 20.4086C4.63809 21.4366 2.16938 23.395 1.85915 26.1938C1.79737 26.7541 1.83549 27.3555 1.83286 27.9427C1.77633 39.6621 1.6199 51.334 1.71849 63.1112C1.72901 64.057 2.26666 65.0387 3.26965 65.112L18.8352 65.1132C19.8355 65.0541 20.3968 64.0158 20.406 62.9004C20.4757 50.7403 20.3377 38.6032 20.2812 26.4662C20.2378 23.6983 17.3721 21.2979 14.4314 20.2506C14.4314 20.2506 13.9543 19.9563 13.9135 19.5348C13.9069 18.9874 13.9017 18.44 13.8951 17.8926L8.2268 17.8874ZM17.7362 58.0006H4.41857C3.99003 57.9788 3.65219 57.6563 3.62984 57.2296V33.9643C3.65219 33.5454 3.98214 33.2152 4.41857 33.1933H17.7362C17.7638 33.1946 17.7914 33.1959 17.8177 33.1972C18.2108 33.2576 18.5039 33.5685 18.5249 33.9643V57.2296C18.5026 57.6486 18.1726 57.9788 17.7362 58.0006ZM16.9475 34.7353H5.20729V56.4586H16.9475V34.7353ZM12.4097 52.4416C13.1813 52.4828 13.5152 53.9258 12.4097 53.9837C11.1149 54.0055 9.15881 54.5157 9.06679 53.2679C9.03656 52.8567 9.38886 52.4648 9.82528 52.4416C10.6863 52.4275 11.5487 52.4275 12.4097 52.4416ZM14.5892 50.8996H7.64577C6.88991 50.8778 6.89517 50.5899 6.85967 50.1967C6.82024 49.7727 7.18831 49.3704 7.64577 49.3576C9.97514 49.3576 12.3071 49.2921 14.6365 49.3589C15.2438 49.4116 15.2478 49.6236 15.3372 49.8819C15.4949 50.3406 15.1242 50.8842 14.5892 50.8996ZM10.3235 39.089C10.3196 38.4503 10.3288 37.8117 10.3288 37.1743C10.3366 36.7541 10.7034 36.3956 11.1451 36.4033C12.0114 36.4483 11.9509 37.7834 11.9167 39.0363C12.2611 38.8834 12.6424 38.7986 13.0433 38.8011C15.0979 38.8384 16.5834 41.7258 14.8626 43.3308C14.4893 43.6791 14.0095 43.8693 13.5021 43.922C13.8912 44.8356 13.8202 45.9304 12.9697 46.7233C11.4106 48.1767 8.0099 46.8685 8.46868 44.3563C8.50285 44.1764 8.55544 44.0016 8.62642 43.8346C7.38023 43.5107 6.30494 42.448 6.57573 40.9638C6.79789 39.7495 7.92577 38.7921 9.2574 38.8011C9.63599 38.8076 9.99749 38.9129 10.3235 39.089ZM11.1004 43.7356C10.1434 43.7523 9.53346 45.3458 10.6837 45.8212C11.4159 46.1245 12.3965 45.4139 12.198 44.5747C12.0837 44.0903 11.6262 43.7318 11.1004 43.7356ZM10.3235 41.2864C10.3196 41.253 10.313 41.2183 10.3051 41.1823C10.1907 40.6978 9.72932 40.3393 9.20745 40.3432C8.25046 40.3599 7.64051 41.9533 8.79074 42.4288C9.41909 42.6896 10.2315 42.2026 10.3222 41.528C10.3182 41.4496 10.3196 41.3686 10.3235 41.2864ZM12.9933 40.3432C12.0363 40.3599 11.4264 41.9533 12.5766 42.4288C13.3838 42.7629 14.4919 41.8209 13.9858 40.9124C13.7913 40.5629 13.4232 40.3406 12.9933 40.3432ZM14.3184 21.2709C16.4466 22.1871 18.5013 23.661 19.0087 25.888C19.0284 25.9741 19.0442 26.0614 19.0547 26.1488L17.4851 26.3133C17.2735 24.6967 15.416 23.413 13.5954 22.6446L14.2198 21.2285C14.2527 21.2426 14.2855 21.2567 14.3184 21.2709ZM8.34511 7.40164C8.3083 10.3829 8.27544 13.3641 8.24257 16.3454L13.878 16.3505C13.8465 13.368 13.8123 10.3867 13.7768 7.40678L8.34511 7.40164ZM13.7124 2.21657L11.061 2.20887L8.40952 2.21657C8.39375 3.43092 8.37797 4.64527 8.36351 5.85961L13.7584 5.86475C13.7453 4.78662 13.7308 3.7072 13.7176 2.62907L13.7124 2.21657Z" fill="#DE285E"/>
</svg>
